<svg xmlns="http://www.w3.org/2000/svg" width="402" height="75" viewBox="0 0 402 75" fill="none"><g clip-path="url(#clip0_1281_22049)"><path d="M5.10212 57.3819V17.6416C14.0526 14.5007 35.6404 6.91513 46.1301 3.22789L95.8727 22.2352V52.7884L46.1301 71.7957C35.6404 68.1084 14.0526 60.5229 5.10212 57.3819ZM52.064 0L51.8778 0.0620748L5.10212 16.4995L5.00281 16.5367L0 18.2872V56.7363L5.10212 58.5241L44.566 72.3916L52.064 75.0236L96.9403 57.8289V17.1947L52.064 0Z" fill="#E93C35"></path><path d="M89.8892 35.9288H45.6087V41.5527H77.5249C75.067 50.7274 63.7206 57.6797 50.0529 57.6797C34.5976 57.6797 22.0595 48.8031 22.0595 37.8531C22.0595 26.9031 34.5852 18.0264 50.0529 18.0264C61.6227 18.0264 71.5538 23.0048 75.8242 30.0937H87.7416C82.2298 21.1177 67.4448 14.6868 50.0653 14.6868C27.981 14.6868 10.0801 25.0533 10.0801 37.8531C10.0801 50.6529 27.981 61.0194 50.0653 61.0194C72.1497 61.0194 90.0506 50.6529 90.0506 37.8531C90.0506 37.2075 89.9885 36.5619 89.9016 35.9288H89.8892Z" fill="#E93C35"></path><path d="M93.2276 63.8873C93.2276 63.8128 93.2152 63.7507 93.1904 63.6887C93.1655 63.639 93.1159 63.5893 93.0538 63.5521C92.9918 63.5149 92.9297 63.5024 92.8552 63.49C92.7807 63.49 92.6938 63.4776 92.5945 63.4776H92.1476V64.4087H92.5324C92.6566 64.4087 92.7683 64.4087 92.8552 64.3839C92.9421 64.3715 93.0166 64.3342 93.0787 64.2846C93.1407 64.2349 93.1904 64.1853 93.2152 64.1232C93.24 64.0611 93.2525 63.9866 93.2525 63.8997L93.2276 63.8873ZM94.2952 65.8613H93.6249L92.6318 64.7936H92.1352V65.8613H91.6262V63.0928H92.5697C92.7559 63.0928 92.9173 63.0928 93.0414 63.1176C93.1655 63.13 93.2897 63.1797 93.4014 63.2417C93.5256 63.3162 93.6249 63.3907 93.6869 63.49C93.749 63.5893 93.7738 63.7135 93.7738 63.8625C93.7738 64.0611 93.7118 64.2225 93.6 64.3591C93.4883 64.4956 93.3269 64.595 93.1283 64.6695L94.2828 65.8737L94.2952 65.8613ZM94.8911 64.5329C94.8911 63.9121 94.6676 63.3659 94.2207 62.9189C93.7738 62.472 93.24 62.2485 92.6193 62.2485C91.9986 62.2485 91.4524 62.472 91.0179 62.9189C90.571 63.3659 90.3476 63.8997 90.3476 64.5329C90.3476 65.166 90.571 65.6999 91.0179 66.1468C91.4648 66.5938 91.9986 66.8172 92.6193 66.8172C93.24 66.8172 93.7862 66.5938 94.2207 66.1468C94.6676 65.6999 94.8911 65.166 94.8911 64.5329ZM95.2387 64.5329C95.2387 65.253 94.978 65.8737 94.469 66.3827C93.96 66.8917 93.3393 67.1524 92.6193 67.1524C91.8993 67.1524 91.2786 66.8917 90.7697 66.3827C90.2607 65.8737 90 65.253 90 64.5329C90 63.8128 90.2607 63.1921 90.7697 62.6831C91.2786 62.174 91.8993 61.9133 92.6193 61.9133C93.3393 61.9133 93.96 62.174 94.469 62.6831C94.978 63.1921 95.2387 63.8128 95.2387 64.5329Z" fill="#E93C35"></path><path d="M192.491 42.4468H188.742V33.3467H192.491V42.4468Z" fill="#231F20"></path><path d="M194.824 33.3467H198.635V40.8205H207.635V42.4468H194.824V33.3467Z" fill="#231F20"></path><path d="M208.889 33.3467H212.7V40.8205H221.712V42.4468H208.889V33.3467Z" fill="#231F20"></path><path d="M232.612 34.3149C234.077 33.57 235.939 33.1975 238.198 33.1975C241.215 33.1975 243.424 33.6941 244.827 34.6873C245.597 35.246 246.006 35.8171 246.069 36.3757H242.257C242.022 35.9412 241.711 35.6184 241.326 35.395C240.656 34.9977 239.651 34.8115 238.335 34.8115C237.019 34.8115 235.926 35.0846 235.144 35.6433C234.362 36.2019 233.977 36.9841 233.977 38.0021C233.977 39.0201 234.387 39.7898 235.219 40.2989C236.05 40.8079 237.093 41.0686 238.372 41.0686C239.651 41.0686 240.668 40.8451 241.351 40.4106C241.724 40.1747 242.046 39.8147 242.295 39.3429H246.044C245.721 40.3361 244.889 41.1431 243.548 41.7638C242.22 42.3846 240.495 42.6949 238.409 42.6949C235.827 42.6949 233.791 42.2728 232.314 41.441C230.837 40.5968 230.092 39.4422 230.092 37.9773C230.092 36.4006 230.936 35.1715 232.612 34.3024V34.3149Z" fill="#231F20"></path><path d="M259.365 40.2369C260.246 39.6782 260.693 38.8961 260.693 37.8905C260.693 36.8849 260.246 36.0903 259.365 35.5316C258.483 34.973 257.291 34.6998 255.789 34.6998C254.287 34.6998 253.083 34.973 252.189 35.5316C251.296 36.0903 250.849 36.8725 250.849 37.9029C250.849 38.9333 251.296 39.7031 252.189 40.2493C253.083 40.808 254.287 41.0811 255.789 41.0811C257.291 41.0811 258.483 40.808 259.365 40.2493V40.2369ZM261.76 41.6274C260.395 42.335 258.396 42.6951 255.814 42.6951C253.232 42.6951 251.233 42.3475 249.856 41.6274C248.018 40.7583 247.1 39.5044 247.1 37.8781C247.1 36.2517 248.018 34.9606 249.856 34.1288C251.221 33.4211 253.22 33.0735 255.814 33.0735C258.409 33.0735 260.395 33.4211 261.76 34.1288C263.598 34.9606 264.504 36.2145 264.504 37.8781C264.504 39.5417 263.585 40.7583 261.76 41.6274Z" fill="#231F20"></path><path d="M269.878 34.9481V37.3814H273.95C274.757 37.3814 275.365 37.3317 275.775 37.2324C276.495 37.0586 276.855 36.7234 276.855 36.2144C276.855 35.6681 276.507 35.2957 275.812 35.1095C275.427 35.0101 274.843 34.9481 274.061 34.9481H269.878ZM277.699 33.5948C278.369 33.7438 278.94 33.9425 279.399 34.228C279.784 34.4639 280.095 34.7122 280.318 34.9977C280.541 35.2833 280.653 35.5937 280.653 35.9537C280.653 36.3882 280.43 36.8227 279.995 37.2324C279.561 37.6421 278.841 37.9401 277.835 38.1139C278.679 38.2877 279.275 38.5236 279.623 38.834C279.97 39.1443 280.144 39.6161 280.144 40.2617V40.87C280.144 41.2921 280.181 41.5777 280.244 41.7266C280.343 41.9625 280.566 42.1363 280.926 42.2481V42.4715H276.743C276.619 42.2729 276.544 42.1115 276.495 41.9874C276.395 41.7391 276.346 41.4659 276.333 41.2052L276.308 40.3734C276.296 39.7899 276.097 39.405 275.712 39.2064C275.328 39.0078 274.608 38.9209 273.565 38.9209H269.878V42.484H266.129V33.3838H274.831C276.072 33.3962 277.028 33.4831 277.699 33.6321V33.5948Z" fill="#231F20"></path><path d="M292.248 35.246C291.764 35.0473 291.081 34.948 290.212 34.948H286.761V37.6048H290.212C291.081 37.6048 291.764 37.4931 292.248 37.282C292.732 37.0585 292.98 36.7233 292.98 36.2516C292.98 35.7798 292.732 35.4446 292.248 35.246ZM295.128 38.5359C294.06 38.9829 292.533 39.2063 290.559 39.2063H286.761V42.459H283.012V33.3589H290.82C292.62 33.3589 294.048 33.5948 295.128 34.0665C296.195 34.5383 296.729 35.2708 296.729 36.264C296.729 37.3317 296.195 38.1014 295.128 38.5483V38.5359Z" fill="#231F20"></path><path d="M310.001 40.2369C310.883 39.6782 311.33 38.8961 311.33 37.8905C311.33 36.8849 310.883 36.0903 310.001 35.5316C309.12 34.973 307.928 34.6998 306.426 34.6998C304.924 34.6998 303.72 34.973 302.826 35.5316C301.932 36.0903 301.485 36.8725 301.485 37.9029C301.485 38.9333 301.932 39.7031 302.826 40.2493C303.72 40.808 304.924 41.0811 306.426 41.0811C307.928 41.0811 309.132 40.808 310.001 40.2493V40.2369ZM312.397 41.6274C311.032 42.335 309.045 42.6951 306.451 42.6951C303.856 42.6951 301.87 42.3475 300.492 41.6274C298.655 40.7583 297.736 39.5044 297.736 37.8781C297.736 36.2517 298.655 34.9606 300.492 34.1288C301.87 33.4211 303.844 33.0735 306.451 33.0735C309.058 33.0735 311.032 33.4211 312.397 34.1288C314.234 34.9606 315.141 36.2145 315.141 37.8781C315.141 39.5417 314.222 40.7583 312.397 41.6274Z" fill="#231F20"></path><path d="M320.515 34.9481V37.3814H324.586C325.393 37.3814 326.002 37.3317 326.411 37.2324C327.131 37.0586 327.491 36.7234 327.491 36.2144C327.491 35.6681 327.144 35.2957 326.448 35.1095C326.064 35.0101 325.48 34.9481 324.698 34.9481H320.515ZM328.348 33.5948C329.018 33.7438 329.589 33.9425 330.049 34.228C330.433 34.4639 330.731 34.7122 330.955 34.9977C331.178 35.2833 331.29 35.5937 331.29 35.9537C331.29 36.3882 331.066 36.8227 330.632 37.2324C330.197 37.6421 329.477 37.9401 328.472 38.1139C329.316 38.2877 329.912 38.5236 330.26 38.834C330.607 39.1443 330.781 39.6161 330.781 40.2617V40.87C330.781 41.2921 330.818 41.5777 330.88 41.7266C330.98 41.9625 331.203 42.1363 331.563 42.2481V42.4715H327.38C327.255 42.2729 327.181 42.1115 327.131 41.9874C327.032 41.7391 326.97 41.4659 326.97 41.2052L326.945 40.3734C326.933 39.7899 326.734 39.405 326.349 39.2064C325.964 39.0078 325.257 38.9209 324.202 38.9209H320.515V42.484H316.766V33.3838H325.468C326.709 33.3962 327.665 33.4831 328.348 33.6321V33.5948Z" fill="#231F20"></path><path d="M338.539 39.0079H343.182L340.885 35.4324L338.527 39.0079H338.539ZM338.787 33.3467H343.07L349.488 42.4468H345.379L344.2 40.597H337.484L336.267 42.4468H332.295L338.787 33.3467Z" fill="#231F20"></path><path d="M361.84 33.3467V34.9482H356.366V42.4468H352.555V34.9482H347.08V33.3467H361.84Z" fill="#231F20"></path><path d="M366.845 42.4468H363.096V33.3467H366.845V42.4468Z" fill="#231F20"></path><path d="M380.648 40.2369C381.529 39.6782 381.976 38.8961 381.976 37.8905C381.976 36.8849 381.529 36.0903 380.648 35.5316C379.766 34.973 378.575 34.6998 377.06 34.6998C375.546 34.6998 374.354 34.973 373.46 35.5316C372.566 36.0903 372.119 36.8725 372.119 37.9029C372.119 38.9333 372.566 39.7031 373.46 40.2493C374.354 40.808 375.558 41.0811 377.06 41.0811C378.562 41.0811 379.754 40.808 380.648 40.2493V40.2369ZM383.044 41.6274C381.666 42.335 379.679 42.6951 377.085 42.6951C374.49 42.6951 372.504 42.3475 371.139 41.6274C369.301 40.7583 368.383 39.5044 368.383 37.8781C368.383 36.2517 369.301 34.9606 371.139 34.1288C372.517 33.4211 374.49 33.0735 377.085 33.0735C379.679 33.0735 381.666 33.4211 383.044 34.1288C384.881 34.9606 385.787 36.2145 385.787 37.8781C385.787 39.5417 384.868 40.7583 383.044 41.6274Z" fill="#231F20"></path><path d="M387.314 33.3467H391.25L398.499 39.728V33.3467H402V42.4468H398.239L390.815 35.9414V42.4468H387.314V33.3467Z" fill="#231F20"></path><path d="M178.984 37.5676V39.0201H183.168C183.168 39.0201 183.155 39.1443 183.143 39.1691C182.932 39.7154 182.448 40.1747 181.666 40.5224C180.846 40.8824 179.804 41.0686 178.525 41.0686C177.246 41.0686 176.067 40.8327 175.049 40.3734C174.031 39.914 173.522 39.1195 173.522 38.0145C173.522 36.9096 173.994 36.0778 174.937 35.5191C175.881 34.9729 177.085 34.6873 178.55 34.6873C179.32 34.6873 180.015 34.7618 180.635 34.8984C181.753 35.1467 182.46 35.5688 182.746 36.1895H186.495C186.284 35.3205 185.477 34.588 184.074 34.0045C182.671 33.421 180.822 33.123 178.5 33.123C175.831 33.123 173.684 33.57 172.07 34.4514C170.444 35.3453 169.637 36.5247 169.637 37.9897C169.637 39.4547 170.444 40.5844 172.045 41.4286C173.584 42.2605 175.558 42.6826 177.966 42.6826C180.598 42.6826 182.758 42.2232 184.434 41.3169C186.184 40.4106 187.053 39.1567 187.053 37.58V37.5552H178.984V37.5676Z" fill="#231F20"></path><path d="M117.808 42.4964V34.9232H112.52V33.3838H126.684V34.9232H121.408V42.4964H117.808Z" fill="#231F20"></path><path d="M129.018 42.4964V33.3838H132.618V36.9717H139.669V33.3838H143.269V42.4964H139.669V38.5112H132.618V42.4964H129.018Z" fill="#231F20"></path><path d="M146.994 42.4964V33.3838H160.215V34.9232H150.594V36.9469H159.545V38.4863H150.594V40.9569H160.55V42.4964H146.994Z" fill="#231F20"></path></g><defs><clipPath id="clip0_1281_22049"><rect width="402" height="75" fill="white"></rect></clipPath></defs></svg>