<svg width="24" height="24" viewBox="0 0 24 24" fill="none" xmlns="http://www.w3.org/2000/svg">
<g clip-path="url(#clip0_2002_13)">
<path d="M12.068 10.4369C12.0563 10.4369 12.0459 10.4384 12.0341 10.4384L6.31738 6.17719L10.5254 11.8205C10.5195 11.8765 10.5165 11.931 10.5165 11.9884C10.5165 12.8445 11.212 13.537 12.068 13.537C12.9226 13.537 13.6166 12.8445 13.6166 11.9884C13.6166 11.1309 12.9226 10.4369 12.068 10.4369Z" fill="white"/>
<path d="M12.0753 0.0918884C5.51582 0.0918884 0.180664 5.42868 0.180664 11.9884C0.180664 18.5467 5.51582 23.8835 12.0753 23.8835C18.6349 23.8835 23.97 18.5467 23.97 11.9884C23.97 5.42868 18.6349 0.0918884 12.0753 0.0918884ZM12.0753 21.7043C6.71809 21.7043 2.35833 17.3459 2.35833 11.9884C2.35833 6.62953 6.71809 2.27111 12.0753 2.27111C17.4326 2.27111 21.7908 6.62953 21.7908 11.9884C21.7908 17.3459 17.4326 21.7043 12.0753 21.7043Z" fill="white"/>
</g>
<defs>
<clipPath id="clip0_2002_13">
<rect width="24" height="24" fill="white"/>
</clipPath>
</defs>
</svg>
