<?xml version="1.0" encoding="UTF-8"?>
<svg version="1.1" xmlns="http://www.w3.org/2000/svg" width="1602" height="960">
<path d="M0 0 C-1.394095 7.70804849 -4.1066362 14.40944981 -7.25 21.5625 C-8.24323555 23.86617565 -9.23412706 26.17086338 -10.22265625 28.4765625 C-10.93832764 30.1457373 -10.93832764 30.1457373 -11.66845703 31.84863281 C-13.42822909 36.01349121 -15.0953406 40.20599925 -16.6875 44.4375 C-17.14511719 45.65308594 -17.60273437 46.86867188 -18.07421875 48.12109375 C-19.15306731 50.97197769 -19.15306731 50.97197769 -19 54 C-17.99924942 53.96099075 -16.99849884 53.92198151 -15.96742249 53.88179016 C68.17977988 50.6068753 152.34310213 47.47032742 303.3125 43.6875 C304.42647659 43.66759758 305.54045319 43.64769516 306.68818665 43.62718964 C351.02952659 42.83774323 395.32530201 42.79540375 439.66419601 43.74781036 C442.74014475 43.81362644 445.81612841 43.87758399 448.89212036 43.94134521 C481.97420977 44.63434398 514.97807565 45.83995015 548 48 C548.33 48.99 548.66 49.98 549 51 C547.56333984 51.65742188 547.56333984 51.65742188 546.09765625 52.328125 C529.05703944 60.35182114 512.90018134 71.31319653 500.640625 85.78515625 C494.86996105 90.62534332 484.32694965 89.35233381 477.0703125 89.68359375 C475.82027435 89.74320786 474.57023621 89.80282196 473.28231812 89.86424255 C470.61314621 89.99146349 467.9439471 90.11767287 465.2746582 90.24237061 C461.0832512 90.43867352 456.89218164 90.64160126 452.70117188 90.84619141 C452.00781864 90.88002552 451.31446541 90.91385963 450.60010147 90.94871902 C449.20846929 91.01666248 447.81683847 91.08463388 446.42520905 91.15263367 C443.02861182 91.31851641 439.63198268 91.48373849 436.23535156 91.64892578 C434.98419556 91.70977356 433.73303955 91.77062134 432.44396973 91.83331299 C429.5170821 91.97497339 426.59011703 92.11476309 423.66308594 92.25341797 C397.37537815 93.50861014 371.21423124 96.08895744 345.03173828 98.69793701 C342.25436717 98.97465648 339.47681861 99.24951405 336.69921875 99.52392578 C311.43821889 102.02967071 286.24477178 105.07195272 261.05908203 108.23974609 C257.20392855 108.7245927 253.34824992 109.20462032 249.49169922 109.67822266 C223.32052154 112.89526178 197.25087749 116.70229731 171.1875 120.6875 C170.00209185 120.86854593 170.00209185 120.86854593 168.79273605 121.05324936 C164.18033353 121.75795651 159.56841577 122.46572184 154.95713043 123.17770386 C153.54864576 123.3950882 152.14008528 123.61198207 150.73143768 123.82830811 C142.44174619 125.10300873 134.17651451 126.4636956 125.9272871 127.97751141 C121.35458942 128.80520676 116.80273371 129.41894934 112.1875 129.9375 C106.47991716 130.60328198 100.90790019 131.57596349 95.28515625 132.7578125 C86.95012732 134.46521983 78.59034332 135.97451111 70.203125 137.40234375 C68.98973953 137.60905197 67.77635406 137.81576019 66.52619934 138.0287323 C61.51551481 138.87973168 56.50410983 139.72639043 51.4921875 140.57006836 C37.72748715 142.89142473 24.01937278 145.32998363 10.36680603 148.243927 C2.15345349 149.9924786 -6.08782328 151.48917747 -14.36294556 152.91143799 C-29.99462979 155.60841708 -45.49633455 158.7335345 -60.98364258 162.15722656 C-69.75867741 164.09541237 -78.53860532 165.91986334 -87.375 167.5625 C-96.61624786 169.2860603 -105.77609387 171.26885673 -114.9375 173.375 C-176.67743373 187.48068249 -176.67743373 187.48068249 -205 187 C-204.62214355 186.50991455 -204.24428711 186.0198291 -203.85498047 185.51489258 C-200.87047343 181.62750494 -198.07262926 177.6540925 -195.375 173.5625 C-192.02869124 168.49504964 -188.57409644 163.51670419 -185.0625 158.5625 C-178.43843531 149.21469403 -171.91205283 139.80431794 -165.45361328 130.34130859 C-156.16466607 116.73539157 -146.82440478 103.16048687 -137.0859375 89.87109375 C-134.19539803 85.89254223 -131.34450238 81.88655207 -128.5 77.875 C-127.68764893 76.73478394 -127.68764893 76.73478394 -126.85888672 75.5715332 C-126.3588916 74.86472412 -125.85889648 74.15791504 -125.34375 73.4296875 C-124.89193359 72.79272949 -124.44011719 72.15577148 -123.97460938 71.49951172 C-122.90917341 70.15832408 -122.90917341 70.15832408 -123 69 C-138.45159408 71.68912086 -153.86212862 74.53183799 -169.25 77.5625 C-179.06399761 79.49532025 -188.86912829 81.3729402 -198.75 82.9375 C-209.56283674 84.65245991 -220.27306487 86.82256987 -231 89 C-252.26202523 93.31583088 -252.26202523 93.31583088 -262.9375 95 C-273.3228729 96.64389484 -283.62393182 98.64959605 -293.9375 100.6875 C-314.61234627 104.76946055 -335.3308961 108.59059845 -356.06376648 112.36532593 C-362.8389159 113.60048099 -369.60988827 114.85670781 -376.37890625 116.125 C-379.005716 116.61555571 -381.63257174 117.10586461 -384.25942993 117.59616089 C-385.90244021 117.90380128 -387.54516843 118.21295234 -389.18759155 118.52371216 C-391.43162989 118.9481656 -393.67661457 119.36722372 -395.921875 119.78515625 C-397.17581055 120.02113525 -398.42974609 120.25711426 -399.72167969 120.50024414 C-402.55505431 120.9321713 -405.1431838 121.10541882 -408 121 C-408.495 119.80375 -408.99 118.6075 -409.5 117.375 C-411.71298411 112.35996407 -414.39616577 107.67479765 -417.18164062 102.96240234 C-419.08852996 99.71168879 -420.64434951 96.51111238 -422 93 C-405.66542251 87.28331607 -389.24247983 82.24586372 -372.54394531 77.71533203 C-371.11910281 77.3285898 -369.69429855 76.94170666 -368.26953125 76.5546875 C-367.17986809 76.25880989 -367.17986809 76.25880989 -366.06819153 75.95695496 C-359.95567517 74.28591827 -353.87590011 72.51119644 -347.796875 70.72265625 C-334.70760415 66.8786557 -321.56110444 63.24810249 -308.40307617 59.64819336 C-305.77135298 58.92813331 -303.14017353 58.2061413 -300.50952148 57.48217773 C-281.05444647 52.12813451 -261.55235042 46.98716332 -242 42 C-240.33714157 41.57436509 -238.67429735 41.14867469 -237.01147461 40.72290039 C-200.7401527 31.45659518 -164.33968476 22.34476839 -127.49560547 15.65332031 C-123.91604251 14.98430855 -120.35106417 14.26160773 -116.78515625 13.5234375 C-101.37638603 10.36053128 -85.95808061 7.87315528 -70.375 5.75 C-69.46440826 5.62512207 -68.55381653 5.50024414 -67.6156311 5.37158203 C-45.256402 2.32717911 -22.60158129 -0.36454163 0 0 Z " fill="#FAFAFA" transform="translate(757,291)"/>
<path d="M0 0 C0.66 0 1.32 0 2 0 C-1.26953186 88.72833024 -1.26953186 88.72833024 -24 112 C-48.80042007 134.62812051 -87.00252222 133.07036073 -118.47485352 133.55419922 C-119.78479566 133.57516151 -121.0947378 133.59612381 -122.44437516 133.61772132 C-156.37868323 134.15424547 -190.31432909 134.14790359 -224.25204143 134.13530041 C-230.69101894 134.13297302 -237.12999382 134.13274752 -243.56897163 134.13381577 C-244.5035465 134.133969 -245.43812136 134.13412223 -246.40101667 134.13428011 C-248.3027209 134.1346 -250.20442513 134.13492422 -252.10612936 134.1352527 C-269.73591808 134.13807102 -287.36570151 134.13487955 -304.99548937 134.12945233 C-319.9355535 134.12499441 -334.87560984 134.12575911 -349.81567383 134.13037109 C-367.3905373 134.13579432 -384.96539618 134.1377898 -402.54026037 134.13475883 C-404.43573574 134.13444046 -406.33121111 134.13412609 -408.22668648 134.13381577 C-409.15798864 134.13366149 -410.08929081 134.13350721 -411.04881425 134.13334826 C-417.43267461 134.13250547 -423.81653188 134.13391434 -430.20039177 134.13629532 C-476.80914908 134.15222431 -523.39804272 133.8167587 -570 133 C-569.52348697 131.56199689 -569.04624361 130.12423577 -568.56869316 128.68657684 C-568.30300683 127.88589767 -568.0373205 127.0852185 -567.76358306 126.26027632 C-566.04204239 121.16435708 -566.04204239 121.16435708 -564 119 C-560.8940379 118.09737548 -557.80426068 117.93834189 -554.58544922 117.76367188 C-553.17938573 117.65991871 -553.17938573 117.65991871 -551.74491692 117.55406952 C-548.83097545 117.34545768 -545.9164053 117.17028951 -543 117 C-541.30283947 116.88797581 -539.60575258 116.77482862 -537.90875244 116.66040039 C-532.81872938 116.32874849 -527.72633497 116.05285332 -522.6328125 115.78125 C-520.73841478 115.67714479 -518.84403656 115.57268401 -516.94967651 115.46789551 C-512.0035564 115.19531929 -507.05717366 114.92784144 -502.11071777 114.66143799 C-498.17838677 114.44881655 -494.24625792 114.23259503 -490.31413555 114.01615429 C-474.40672142 113.14066188 -458.49928308 112.26575601 -442.5871582 111.47973633 C-422.71433949 110.49654527 -402.86974824 109.33241202 -383.02811813 107.84398651 C-380.87960556 107.6831665 -378.730971 107.52406382 -376.58230591 107.36529541 C-351.22387042 105.48787656 -325.90775287 103.24596313 -300.5967865 100.80918884 C-294.75639434 100.25047049 -288.9152412 99.72755907 -283.06640625 99.265625 C-282.38739761 99.21186707 -281.70838898 99.15810913 -281.00880432 99.10272217 C-280.34033981 99.04981018 -279.67187531 98.99689819 -278.9831543 98.94238281 C-239.42921841 95.79067477 -199.76024766 91.23138854 -160.51629639 85.37438965 C-157.7160906 84.95775826 -154.91491422 84.54796483 -152.11376953 84.13769531 C-118.7145952 79.45921627 -118.7145952 79.45921627 -86.46728516 69.93505859 C-84.0213941 69.008108 -81.56033006 68.17544733 -79.07421875 67.36328125 C-52.49356252 58.49856356 -19.45224436 40.3067077 -6.12890625 14.44921875 C-3.93698337 9.69373209 -1.93452955 4.86513601 0 0 Z " fill="#F6F6F6" transform="translate(916,416)"/>
<path d="M0 0 C0.89525391 -0.00773438 1.79050781 -0.01546875 2.71289062 -0.0234375 C9.18154762 -0.00396825 9.18154762 -0.00396825 12.5625 2.25 C11.8778066 7.3085557 9.7866959 11.68256921 7.75 16.3125 C6.93580032 18.18472297 6.12202142 20.05712898 5.30859375 21.9296875 C4.8688623 22.93870117 4.42913086 23.94771484 3.97607422 24.98730469 C2.45953271 28.48766061 0.96353093 31.99647813 -0.52734375 35.5078125 C-1.32053649 37.37252325 -2.11392712 39.23714972 -2.90731812 41.10177612 C-3.66876297 42.89341282 -4.42779595 44.68607396 -5.18676758 46.47875977 C-6.13905404 48.71099598 -7.11351458 50.93393226 -8.11230469 53.14575195 C-9.48441146 56.18600495 -9.48441146 56.18600495 -10.30175781 59.23510742 C-11.3284393 62.28699741 -12.09571811 64.02230344 -14.4375 66.25 C-20.13348567 67.90817724 -25.78654157 68.02735983 -31.6875 68.1875 C-34.81851695 68.32689684 -37.94818547 68.49073354 -41.078125 68.65234375 C-41.89201691 68.6908696 -42.70590881 68.72939545 -43.54446411 68.76908875 C-63.2280569 69.77636786 -82.68459217 73.12468711 -102.0625 76.5625 C-104.36130025 76.96622321 -106.66012873 77.36978568 -108.95898438 77.77319336 C-146.72145036 84.42397861 -184.15141934 92.16876605 -221.2958374 101.7019043 C-224.58739358 102.54428152 -227.88077495 103.37944534 -231.17399597 104.21528625 C-234.94787882 105.17344268 -238.72118592 106.13385219 -242.49435425 107.09481812 C-244.33078781 107.56249268 -246.16731096 108.02981562 -248.00393677 108.49673462 C-271.11347579 114.3772308 -294.0464303 120.81605009 -316.94030762 127.48150635 C-319.58158299 128.24986709 -322.22352609 129.01591715 -324.86546326 129.78199863 C-348.78093684 136.71845037 -372.67215709 143.75069225 -396.4375 151.1875 C-397.0738739 151.38534088 -397.7102478 151.58318176 -398.36590576 151.78701782 C-405.91850926 154.13598496 -413.43499331 156.56654832 -420.9140625 159.140625 C-421.60288513 159.37628677 -422.29170776 159.61194855 -423.00140381 159.85475159 C-426.29770189 160.98293051 -429.58836537 162.12368719 -432.87109375 163.29077148 C-434.04027344 163.69368408 -435.20945312 164.09659668 -436.4140625 164.51171875 C-437.43580566 164.87225342 -438.45754883 165.23278809 -439.51025391 165.60424805 C-442.81743108 166.33381299 -445.16185216 166.00992835 -448.4375 165.25 C-448.4375 164.59 -448.4375 163.93 -448.4375 163.25 C-422.8296501 152.23485868 -397.19710633 141.26831096 -371.44775391 130.58764648 C-364.94839211 127.88883825 -358.46843867 125.14710645 -352 122.375 C-351.16509033 122.01728516 -350.33018066 121.65957031 -349.4699707 121.29101562 C-345.7340272 119.68507221 -342.00756121 118.06192348 -338.296875 116.3984375 C-332.31963225 113.73335853 -326.28583428 111.2004247 -320.25820923 108.65206909 C-316.57484397 107.09448631 -312.89287488 105.53361077 -309.2109375 103.97265625 C-308.46662979 103.65712296 -307.72232208 103.34158966 -306.95545959 103.01649475 C-285.40052783 93.87500419 -263.90626678 84.59179128 -242.4375 75.25 C-241.2633252 74.73985352 -240.08915039 74.22970703 -238.87939453 73.70410156 C-235.52210548 72.24399978 -232.16695296 70.77910395 -228.8125 69.3125 C-227.83643799 68.88831787 -226.86037598 68.46413574 -225.85473633 68.02709961 C-220.99985344 65.8975153 -216.22409906 63.66869854 -211.4921875 61.27734375 C-205.47378974 58.23602339 -199.36349507 55.45477656 -193.1875 52.75 C-192.0934082 52.27006592 -190.99931641 51.79013184 -189.87207031 51.2956543 C-182.16402612 47.94143825 -174.41938154 44.85684503 -166.51171875 42.00976562 C-163.28310862 40.82715796 -160.07876585 39.5824981 -156.87060547 38.34570312 C-146.54157183 34.3682263 -136.15111494 30.60528523 -125.68017578 27.01855469 C-123.6482314 26.32221668 -121.61892926 25.6186727 -119.58984375 24.9140625 C-109.87078808 21.59329702 -100.03325327 18.76432859 -90.140625 16.01171875 C-87.57663547 15.28920725 -85.02243602 14.53924887 -82.46875 13.78125 C-70.82965493 10.38787844 -59.07535809 7.83607286 -47.1875 5.5 C-46.44039764 5.35120392 -45.69329529 5.20240784 -44.92355347 5.04910278 C-30.09237704 2.11392926 -15.1549288 -0.13999934 0 0 Z " fill="#F6F6F6" transform="translate(776.4375,205.75)"/>
<path d="M0 0 C7.60419283 -0.04651065 15.20832708 -0.08617542 22.81263532 -0.10799903 C26.05442577 -0.11737496 29.29609794 -0.13079905 32.53784132 -0.15104103 C89.01884944 -0.49063658 89.01884944 -0.49063658 108.18926811 15.31795502 C113.17309396 20.34782083 115.18422398 25.26557791 115.50567436 32.33748627 C115.02184315 43.55713978 109.61167811 52.36306832 102.88067436 61.02498627 C102.21165092 61.89768158 101.54262749 62.77037689 100.85333061 63.66951752 C92.83459685 73.805313 83.81928827 82.73492865 73.70098686 90.76326752 C71.21529076 92.75664431 68.80216694 94.81342682 66.39922905 96.90511322 C58.71873185 103.55972561 50.55483216 109.44357363 42.26836967 115.31502533 C39.79446106 117.08672839 37.34720967 118.89075731 34.90411186 120.70467377 C34.09417778 121.30231537 33.2842437 121.89995697 32.44976616 122.51570892 C30.89705291 123.66269526 29.3487942 124.81574403 27.80572319 125.97566986 C20.86454243 131.07047905 20.86454243 131.07047905 16.88067436 131.02498627 C13.78692436 129.95076752 13.78692436 129.95076752 10.38067436 128.33748627 C2.17789887 124.5861171 -6.22869247 121.67260819 -15.11932564 120.02498627 C-14.60879739 115.95899344 -12.68749263 114.46626175 -9.61932564 111.89998627 C-4.32004689 107.27625297 0.32811931 102.37920287 4.88067436 97.02498627 C5.58909477 96.2090097 5.58909477 96.2090097 6.31182671 95.37654877 C14.62996473 85.7447389 24.99158047 73.72109955 25.63067436 60.39998627 C25.07182503 55.0007806 23.01427174 51.87862852 18.91583061 48.31795502 C-1.36618423 32.8280302 -31.96098673 29.20892733 -56.58416939 25.56014252 C-57.44905983 25.43162903 -58.31395027 25.30311554 -59.20504951 25.1707077 C-103.19921732 18.69833791 -147.56741696 15.49417615 -191.92196274 12.68069267 C-195.04592932 12.48246107 -198.1698151 12.28299483 -201.29368782 12.0832901 C-210.59708617 11.48980149 -219.90064443 10.9026726 -229.20645809 10.34818172 C-233.08946246 10.11460638 -236.97180796 9.87115707 -240.85406876 9.62556267 C-242.67178062 9.51291242 -244.4897728 9.40468553 -246.30802917 9.30119514 C-248.82003303 9.1578374 -251.3306413 8.99912735 -253.84149361 8.83699799 C-254.5663845 8.79952233 -255.29127539 8.76204668 -256.03813267 8.7234354 C-261.19736709 8.3676611 -265.34276296 7.01268494 -270.11932564 5.02498627 C-269.78932564 4.03498627 -269.45932564 3.04498627 -269.11932564 2.02498627 C-236.38121915 1.76747805 -203.64309456 1.51243242 -170.90494378 1.26062173 C-167.00163213 1.23059671 -163.09832063 1.20055161 -159.19500923 1.17049408 C-158.41823494 1.16451285 -157.64146065 1.15853162 -156.84114775 1.15236914 C-144.41744169 1.05665815 -131.99374877 0.95933757 -119.57006028 0.86137545 C-106.7328429 0.76019021 -93.89561214 0.6608426 -81.05836844 0.56305218 C-73.88558515 0.50836319 -66.71280956 0.45292762 -59.5400486 0.39537811 C-42.38876921 0.25813656 -25.23747429 0.13865024 -8.08588028 0.04679871 C-5.39057912 0.031977 -2.6952903 0.01654016 0 0 Z " fill="#F5F5F5" transform="translate(270.1193256378174,215.97501373291016)"/>
<path d="M0 0 C-1.39840892 4.09954616 -3.33212862 6.89346877 -6.125 10.1875 C-6.93453125 11.15429688 -7.7440625 12.12109375 -8.578125 13.1171875 C-9.37734375 14.06851562 -10.1765625 15.01984375 -11 16 C-14.99048361 20.91740697 -18.9146153 25.88670898 -22.81713867 30.87402344 C-27.87831701 37.34093437 -33.02299196 43.73208996 -38.2199707 50.09033203 C-41.68097349 54.33818468 -45.05934935 58.63794336 -48.375 63 C-51.65599307 67.31399741 -55.0360513 71.44120352 -58.72265625 75.4140625 C-60.22327148 77.08848834 -60.22327148 77.08848834 -61 80 C-59.93523437 79.98839844 -58.87046875 79.97679687 -57.7734375 79.96484375 C-37.37077823 79.8089901 -37.37077823 79.8089901 -30 81 C-29.67 81.66 -29.34 82.32 -29 83 C-33.99798329 89.32132638 -39.12691117 95.27370246 -44.89453125 100.90234375 C-47.39474951 103.39328476 -49.68442822 106.01749474 -51.98046875 108.6953125 C-55.12697284 112.28610053 -58.39038293 115.76844588 -61.6496582 119.25683594 C-64.11259892 121.90505467 -66.48143248 124.57456402 -68.7421875 127.3984375 C-69.48726562 128.25695312 -70.23234375 129.11546875 -71 130 C-71.66 130 -72.32 130 -73 130 C-73.2475 130.5775 -73.495 131.155 -73.75 131.75 C-75.61724008 135.11103214 -78.34536915 137.38387684 -81.125 140 C-83.30544296 142.1350916 -83.30544296 142.1350916 -85 146 C-74.44 146 -63.88 146 -53 146 C-52.34 147.32 -51.68 148.64 -51 150 C-54.53856814 153.67643443 -58.26154587 156.89363183 -62.3125 160 C-67.62160685 164.11780199 -72.86259519 168.30769058 -78.0625 172.5625 C-82.90105069 176.51656571 -87.77656919 180.4044461 -92.75 184.1875 C-97.9290095 188.13705214 -102.93498758 192.25255508 -107.91796875 196.4453125 C-111.71132177 199.6139496 -115.61064058 202.64386503 -119.50756836 205.68334961 C-124.05035519 209.23439692 -128.53347627 212.85362799 -133 216.5 C-137.96230357 220.54985316 -142.95169177 224.5578546 -148 228.5 C-157.22168768 235.70567398 -166.26812106 243.12712023 -175.32421875 250.5390625 C-176.03400879 251.11865723 -176.74379883 251.69825195 -177.47509766 252.29541016 C-178.82135515 253.39477505 -180.16619132 254.49588389 -181.50927734 255.59912109 C-183.32706164 257.08268754 -185.15717155 258.54768161 -187 260 C-187.61987793 260.48984375 -188.23975586 260.9796875 -188.87841797 261.484375 C-192.27209217 264.05421923 -193.61859727 265 -198 265 C-196.62376354 260.99964427 -194.79863671 258.27362608 -192.0625 255.0625 C-188.49590267 250.81111598 -185.02837183 246.50786406 -181.625 242.125 C-177.58188148 236.93943009 -173.40543458 231.89416057 -169.12988281 226.89941406 C-165.29284077 222.39601027 -161.62963762 217.77079895 -157.99536133 213.10302734 C-155.1100897 209.40013248 -152.17428777 205.74716809 -149.1875 202.125 C-143.02103508 194.95520442 -143.02103508 194.95520442 -138 187 C-138.61931396 187.00523682 -139.23862793 187.01047363 -139.87670898 187.01586914 C-142.73029533 187.03688073 -145.58386531 187.04973614 -148.4375 187.0625 C-149.41138672 187.07087891 -150.38527344 187.07925781 -151.38867188 187.08789062 C-157.34778969 187.10782078 -163.09067683 186.77609518 -169 186 C-169.7578125 183.8125 -169.7578125 183.8125 -170 181 C-168.3046875 178.5 -168.3046875 178.5 -165.875 176 C-165.08867188 175.175 -164.30234375 174.35 -163.4921875 173.5 C-162.66976563 172.675 -161.84734375 171.85 -161 171 C-160.175 170.17113281 -159.35 169.34226562 -158.5 168.48828125 C-156.86072714 166.85669248 -155.21762224 165.22894282 -153.5703125 163.60546875 C-149.10111912 159.18625038 -144.80213197 154.71428645 -140.71875 149.9375 C-138.22604739 147.12754433 -135.54029394 144.52740065 -132.859375 141.8984375 C-131.1636257 140.16706321 -129.63551191 138.39258257 -128.125 136.5 C-127.42375 135.675 -126.7225 134.85 -126 134 C-125.34 134 -124.68 134 -124 134 C-123.74347656 133.41476562 -123.48695312 132.82953125 -123.22265625 132.2265625 C-121.89437838 129.80765392 -120.43475199 128.26801128 -118.4375 126.375 C-115.85984611 123.95478041 -115.85984611 123.95478041 -114 121 C-114.62261719 121.01160156 -115.24523438 121.02320313 -115.88671875 121.03515625 C-122.97446331 121.1043532 -130.04338866 120.90893964 -137.125 120.625 C-138.53011841 120.5787146 -138.53011841 120.5787146 -139.96362305 120.53149414 C-140.84445557 120.4927417 -141.72528809 120.45398926 -142.6328125 120.4140625 C-143.82221436 120.36693115 -143.82221436 120.36693115 -145.03564453 120.31884766 C-147 120 -147 120 -149 118 C-148.85790591 115.15219767 -148.11664919 114.11641016 -146.09375 112.09765625 C-145.2378125 111.42605469 -144.381875 110.75445312 -143.5 110.0625 C-142.50742188 109.27746094 -141.51484375 108.49242187 -140.4921875 107.68359375 C-135.8197994 104.0768142 -131.11440572 100.51264377 -126.41113281 96.94628906 C-121.36009895 93.09692149 -116.48368162 89.09393593 -111.67016602 84.95361328 C-106.48694304 80.51362356 -101.08145725 76.39334413 -95.65039062 72.26367188 C-92.84991077 70.11939913 -90.08186539 67.9342157 -87.3125 65.75 C-81.81014707 61.41351223 -76.28421015 57.10824552 -70.75 52.8125 C-65.28777891 48.570665 -59.84707577 44.30707297 -54.4609375 39.96875 C-52.03376826 38.02701461 -49.58981991 36.10857678 -47.14135742 34.19384766 C-41.35559747 29.66919945 -35.62536138 25.08469088 -29.9375 20.4375 C-23.9612146 15.5562774 -17.90924627 10.79484344 -11.76953125 6.12109375 C-9.92994957 4.71221808 -8.13359033 3.24496736 -6.38671875 1.72265625 C-4 0 -4 0 0 0 Z " fill="#F4F4F4" transform="translate(1464,333)"/>
<path d="M0 0 C-0.57500636 3.97867306 -2.55929023 6.17387819 -5.125 9.1875 C-7.99537641 12.60655815 -10.83779041 16.0260409 -13.5625 19.5625 C-15.92954759 22.62828704 -18.32500059 25.66731818 -20.75 28.6875 C-23.46335761 32.06747905 -26.15208064 35.46491007 -28.82202148 38.87915039 C-33.38742169 44.71629984 -38.00801812 50.50382666 -42.6875 56.25 C-43.23672119 56.92474365 -43.78594238 57.5994873 -44.35180664 58.29467773 C-46.73167197 61.21726277 -49.11308589 64.13857004 -51.49609375 67.05859375 C-52.19863281 67.92613281 -52.90117187 68.79367187 -53.625 69.6875 C-54.21539062 70.41324219 -54.80578125 71.13898438 -55.4140625 71.88671875 C-57.12590954 74.16777601 -58.5487617 76.54695707 -60 79 C-58.75126099 79.03758423 -58.75126099 79.03758423 -57.47729492 79.07592773 C-54.38537167 79.17112694 -51.29361148 79.27035672 -48.2019043 79.37231445 C-46.20696681 79.43687006 -44.21188071 79.4967783 -42.21679688 79.55664062 C-40.96318359 79.59853516 -39.70957031 79.64042969 -38.41796875 79.68359375 C-37.26063232 79.72025146 -36.1032959 79.75690918 -34.91088867 79.79467773 C-32 80 -32 80 -29 81 C-29.59387634 84.410547 -30.75687512 86.1945616 -33.078125 88.734375 C-33.71041016 89.43111328 -34.34269531 90.12785156 -34.99414062 90.84570312 C-35.65607422 91.55662109 -36.31800781 92.26753906 -37 93 C-37.62583984 93.67482422 -38.25167969 94.34964844 -38.89648438 95.04492188 C-40.83823889 97.12237969 -42.79236142 99.1875092 -44.75 101.25 C-50.26083764 107.07939047 -55.72229658 112.94520356 -61.125 118.875 C-63.37465714 121.33271791 -65.65232936 123.76277696 -67.9375 126.1875 C-68.61997803 126.91187256 -69.30245605 127.63624512 -70.00561523 128.38256836 C-71.35216714 129.80967364 -72.70056808 131.23503707 -74.05102539 132.65844727 C-74.66453857 133.30869873 -75.27805176 133.9589502 -75.91015625 134.62890625 C-76.45808838 135.20713135 -77.00602051 135.78535645 -77.57055664 136.38110352 C-79.19808168 138.15096663 -79.19808168 138.15096663 -81 141 C-81.66 141 -82.32 141 -83 141 C-83.33 142.32 -83.66 143.64 -84 145 C-82.86304688 144.98839844 -81.72609375 144.97679687 -80.5546875 144.96484375 C-70.97677381 144.89822927 -61.54651806 145.14050641 -52 146 C-51.67 147.65 -51.34 149.3 -51 151 C-52.42210502 152.11736823 -53.84421688 153.23472776 -55.26635742 154.35205078 C-56.52184111 155.33856115 -57.77720932 156.3252185 -59.0324707 157.31201172 C-62.23907025 159.8324795 -65.44718388 162.35094077 -68.66015625 164.86328125 C-75.84777371 170.48772794 -82.95859815 176.19265827 -90 182 C-100.37570379 190.5429995 -100.37570379 190.5429995 -105.1875 194.25 C-109.41441773 197.51076511 -113.55142243 200.87548437 -117.6875 204.25 C-122.75426054 208.38271117 -127.84614936 212.47639924 -133 216.5 C-138.73725299 220.97969432 -144.39176928 225.55431958 -150.03027344 230.1574707 C-154.39895879 233.71747326 -158.80648353 237.22148305 -163.25 240.6875 C-167.64545754 244.11781411 -171.97370186 247.60937298 -176.25 251.1875 C-177.21550781 251.99316406 -178.18101562 252.79882812 -179.17578125 253.62890625 C-181.05764701 255.20884058 -182.93011893 256.80003237 -184.79296875 258.40234375 C-185.66566406 259.13582031 -186.53835937 259.86929687 -187.4375 260.625 C-188.19933594 261.27726562 -188.96117187 261.92953125 -189.74609375 262.6015625 C-192.38711194 264.24018384 -193.94727283 264.29073592 -197 264 C-196.49237119 259.75622311 -193.85184033 257.18956401 -191.125 254.125 C-187.0793567 249.46779051 -183.16104498 244.74584085 -179.375 239.875 C-175.45729672 234.84737237 -171.4798568 229.87921209 -167.4296875 224.95703125 C-163.96963866 220.74600717 -160.53514745 216.51436706 -157.1027832 212.28076172 C-154.19615195 208.69689431 -151.28038023 205.12115401 -148.34765625 201.55859375 C-147.7556543 200.83696045 -147.16365234 200.11532715 -146.55371094 199.37182617 C-145.41809095 197.98796844 -144.27955157 196.60649973 -143.13769531 195.2277832 C-142.62432617 194.600896 -142.11095703 193.97400879 -141.58203125 193.328125 C-141.13061768 192.7805957 -140.6792041 192.23306641 -140.21411133 191.66894531 C-138.90073071 189.86354215 -137.94493403 188.01916035 -137 186 C-137.86278564 186.01047363 -138.72557129 186.02094727 -139.61450195 186.03173828 C-142.81810521 186.06583983 -146.0216159 186.09090857 -149.2253418 186.10986328 C-150.61144048 186.1199157 -151.99751799 186.1335597 -153.38354492 186.15087891 C-155.3766975 186.17515952 -157.37000533 186.18542031 -159.36328125 186.1953125 C-161.16212769 186.21102295 -161.16212769 186.21102295 -162.99731445 186.22705078 C-166 186 -166 186 -169 184 C-168.58842674 179.0342791 -166.42584714 177.03032749 -162.875 173.6875 C-158.96213727 169.97515794 -155.35077903 166.17295128 -151.82568359 162.09057617 C-148.76261911 158.5830847 -145.56990595 155.19962813 -142.375 151.8125 C-141.3377478 150.71047241 -141.3377478 150.71047241 -140.27954102 149.58618164 C-135.38780062 144.41148048 -130.39244591 139.35569675 -125.33081055 134.34790039 C-121.36887931 130.4124535 -117.41909701 126.4261765 -114 122 C-114 121.67 -114 121.34 -114 121 C-114.6798999 120.97494385 -115.3597998 120.9498877 -116.06030273 120.92407227 C-119.18617279 120.80694178 -122.31182628 120.68475344 -125.4375 120.5625 C-126.50677734 120.52318359 -127.57605469 120.48386719 -128.67773438 120.44335938 C-134.83097936 120.19873496 -140.88914575 119.76466 -147 119 C-147.33 117.35 -147.66 115.7 -148 114 C-140.82290395 108.22258658 -133.64357327 102.45645937 -126.3125 96.875 C-121.1099988 92.90836923 -116.08189021 88.75984367 -111.07421875 84.55078125 C-105.48083978 79.90976922 -99.73706889 75.46121751 -94 71 C-93.29004883 70.44763672 -92.58009766 69.89527344 -91.84863281 69.32617188 C-88.7966081 66.95193274 -85.74413014 64.57827834 -82.69091797 62.20556641 C-73.27889989 54.889578 -63.89710706 47.53790518 -54.6015625 40.07421875 C-52.12261089 38.09775733 -49.62982409 36.14046275 -47.13256836 34.18725586 C-41.35014462 29.66429044 -35.62252829 25.08237614 -29.9375 20.4375 C-23.9612146 15.5562774 -17.90924627 10.79484344 -11.76953125 6.12109375 C-9.92994957 4.71221808 -8.13359033 3.24496736 -6.38671875 1.72265625 C-4 0 -4 0 0 0 Z " fill="#F5F5F5" transform="translate(323,334)"/>
<path d="M0 0 C1.0823291 0.26538574 1.0823291 0.26538574 2.18652344 0.53613281 C11.50028597 2.88383351 19.80316109 5.84820708 28 11 C23.93395584 15.30616488 19.48250036 18.82627458 14.75 22.375 C10.02089394 25.92421545 5.40336798 29.49571713 0.9375 33.375 C-1.92258754 35.61669024 -3.54563632 36.39555823 -7.1875 36 C-8.445625 35.67 -9.70375 35.34 -11 35 C-33.6752473 30.19737576 -58.41002494 35.8936879 -77.96484375 47.86328125 C-88.28096317 54.76318515 -88.28096317 54.76318515 -96 64 C-96.66 64 -97.32 64 -98 64 C-98.26167969 64.55429687 -98.52335937 65.10859375 -98.79296875 65.6796875 C-100.14649657 68.28161477 -101.70134087 70.67432336 -103.3125 73.125 C-115.91560199 92.95596794 -122.22942251 116.98987279 -117.51757812 140.39648438 C-116.27429435 145.68366692 -114.69707806 150.84328801 -113 156 C-112.71382812 156.93199219 -112.42765625 157.86398437 -112.1328125 158.82421875 C-108.44534886 169.44762591 -98.32065507 186.83967247 -88 192 C-89.3276834 195.86789399 -90.9523702 198.34679554 -93.75 201.3125 C-96.42155106 204.21110874 -98.88790166 207.11098127 -101.1875 210.3125 C-103.45750904 213.42832063 -105.82603734 215.75955577 -109 218 C-115.04942966 213.25855513 -115.04942966 213.25855513 -117 211 C-117 210.34 -117 209.68 -117 209 C-117.54269531 208.80664062 -118.08539062 208.61328125 -118.64453125 208.4140625 C-122.05125713 206.36889705 -124.25470361 203.45122238 -126.6875 200.375 C-127.21424316 199.71056885 -127.74098633 199.0461377 -128.28369141 198.36157227 C-133.70413515 191.34818514 -138.03417623 183.91130997 -142 176 C-142.56460937 174.88367188 -143.12921875 173.76734375 -143.7109375 172.6171875 C-156.95937401 144.17003703 -157.74257856 109.62647885 -147.56640625 80.13671875 C-135.03200426 46.03225304 -111.02586704 21.98871804 -78.57861328 6.19042969 C-72.56108621 3.41240829 -66.44838417 1.48772068 -60 0 C-59.33033203 -0.15936035 -58.66066406 -0.3187207 -57.97070312 -0.48291016 C-39.12140082 -4.77931216 -18.75566922 -4.68212505 0 0 Z " fill="#F7F7F7" transform="translate(1395,344)"/>
<path d="M0 0 C-1.31446547 3.0133198 -2.55616357 4.72480081 -5.203125 6.6640625 C-6.16883423 7.38118408 -6.16883423 7.38118408 -7.15405273 8.11279297 C-7.84571533 8.61182129 -8.53737793 9.11084961 -9.25 9.625 C-9.96293213 10.14336426 -10.67586426 10.66172852 -11.41040039 11.19580078 C-12.88484125 12.26743806 -14.36084944 13.33692206 -15.83837891 14.40429688 C-17.88621147 15.9160016 -19.87415033 17.48070313 -21.85546875 19.078125 C-30.44201686 25.87374143 -30.44201686 25.87374143 -34.5546875 26.20703125 C-36.84061339 25.681031 -38.83888383 24.90284816 -41 24 C-62.9703159 19.98733833 -87.67939555 25.62903064 -106.31274414 37.76171875 C-126.17782281 51.61623355 -139.82105827 71.9062748 -144.40185547 95.72290039 C-148.76359844 120.5734253 -143.79384362 145.29275809 -129.75 166.32421875 C-126.38582486 171.04558846 -122.3201017 174.87788703 -117.95703125 178.66796875 C-116 181 -116 181 -115.875 183.40625 C-117.39238679 186.90466955 -119.66322529 189.51137735 -122.1875 192.3125 C-123.1891943 193.45685246 -124.18920234 194.60268322 -125.1875 195.75 C-125.91259766 196.57951172 -125.91259766 196.57951172 -126.65234375 197.42578125 C-129.27628836 200.49085278 -131.63200458 203.73600631 -134 207 C-137.28240698 206.41478198 -138.95252491 205.43862405 -141.3203125 203.11328125 C-141.93310059 202.51209473 -142.54588867 201.9109082 -143.17724609 201.29150391 C-144.14138428 200.31189697 -144.14138428 200.31189697 -145.125 199.3125 C-146.12587646 198.29808838 -146.12587646 198.29808838 -147.14697266 197.26318359 C-161.73857159 182.16490748 -171.61888071 164.25334661 -177 144 C-177.30679688 142.87078125 -177.61359375 141.7415625 -177.9296875 140.578125 C-183.29894015 120.02155771 -182.96443196 97.3890166 -177 77 C-176.81276367 76.33371582 -176.62552734 75.66743164 -176.43261719 74.98095703 C-167.71601282 44.5029509 -146.38614942 17.67004838 -118.875 1.9375 C-82.47264881 -17.06628789 -36.55520029 -21.00108361 0 0 Z " fill="#F7F7F7" transform="translate(282,355)"/>
<path d="M0 0 C4.99653779 0.38576211 7.64176794 2.94649487 11 6.375 C11.56033936 6.94444336 12.12067871 7.51388672 12.69799805 8.10058594 C35.14806269 31.74936447 46.45255161 61.8980771 46.3125 94.25 C46.30926727 95.26963837 46.30926727 95.26963837 46.30596924 96.30987549 C46.15692632 125.65926962 36.67949698 150.76229526 19 174 C18.44957031 174.78890625 17.89914062 175.5778125 17.33203125 176.390625 C16.89246094 176.92171875 16.45289063 177.4528125 16 178 C15.34 178 14.68 178 14 178 C13.74605469 178.59039063 13.49210938 179.18078125 13.23046875 179.7890625 C11.86493092 182.24269555 10.45908316 183.57844906 8.3125 185.375 C7.58933594 185.9834375 6.86617187 186.591875 6.12109375 187.21875 C5.42113281 187.8065625 4.72117187 188.394375 4 189 C3.47535156 189.4846875 2.95070313 189.969375 2.41015625 190.46875 C-21.73864508 212.58978939 -54.24825096 220.20182549 -86.11621094 219.14794922 C-103.46688548 218.2577944 -121.16541478 214.3402944 -136 205 C-134.65466534 201.87925784 -133.32489343 200.19064081 -130.5859375 198.1953125 C-129.90660156 197.69386719 -129.22726563 197.19242188 -128.52734375 196.67578125 C-127.81707031 196.16402344 -127.10679687 195.65226563 -126.375 195.125 C-125.34439453 194.36896484 -125.34439453 194.36896484 -124.29296875 193.59765625 C-122.90329524 192.57821471 -121.50913359 191.56486359 -120.1105957 190.55761719 C-118.66570389 189.4912887 -117.2455574 188.39083019 -115.84838867 187.26269531 C-115.15720947 186.70936523 -114.46603027 186.15603516 -113.75390625 185.5859375 C-113.13845947 185.07853027 -112.5230127 184.57112305 -111.88891602 184.04833984 C-109.48575511 182.71459641 -108.21102613 182.93167677 -105.5625 183.5 C-104.03506441 183.97945234 -102.51403997 184.47979139 -101 185 C-76.97746487 191.03685892 -51.46065976 188.0178539 -29.82861328 175.7199707 C-8.06371277 162.54980748 5.88091797 141.50452666 12 117 C16.75693239 92.57033026 12.40970068 68.0560832 -1 47 C-6.45088123 39.18320436 -13.17543748 32.59874979 -20 26 C-18.26453389 21.94723522 -15.53759439 18.66906253 -12.8125 15.25 C-12.32289795 14.63108887 -11.8332959 14.01217773 -11.32885742 13.37451172 C-7.68654566 8.79632402 -3.93813153 4.32791247 0 0 Z " fill="#F6F6F6" transform="translate(303,371)"/>
<path d="M0 0 C9.84184841 1.75980071 18.40788058 14.20350208 23.76953125 21.89453125 C44.42594688 52.48837675 51.03628973 86.09357225 44.19140625 122.35546875 C39.72461452 144.33880434 29.01495314 164.4350328 13.44384766 180.50927734 C12.0178177 181.98160384 10.60848497 183.46867608 9.19921875 184.95703125 C3.5608459 190.78680573 -2.14704657 195.66893343 -9 200 C-10.13115234 200.74830078 -10.13115234 200.74830078 -11.28515625 201.51171875 C-21.54913539 208.04022635 -32.76169467 212.59362035 -44.4375 215.875 C-45.15808594 216.07810791 -45.87867188 216.28121582 -46.62109375 216.49047852 C-56.09629451 219.00624012 -65.43569561 219.18647606 -75.20947266 219.18530273 C-77.2323133 219.18748095 -79.25459959 219.20567535 -81.27734375 219.22460938 C-92.67532418 219.24135469 -103.57793503 218.07763694 -114.5 214.75 C-115.55948853 214.43446167 -115.55948853 214.43446167 -116.64038086 214.11254883 C-123.39298264 212.02236728 -129.69182471 209.19248524 -136 206 C-136 205.01 -136 204.02 -136 203 C-134.36694336 201.45361328 -134.36694336 201.45361328 -132.08984375 199.8203125 C-131.26419922 199.22089844 -130.43855469 198.62148438 -129.58789062 198.00390625 C-128.71326172 197.38386719 -127.83863281 196.76382813 -126.9375 196.125 C-126.08994141 195.51269531 -125.24238281 194.90039062 -124.36914062 194.26953125 C-122.6992803 193.06516867 -121.02462473 191.86742361 -119.3449707 190.67675781 C-117.86333683 189.61732404 -116.39379467 188.54058137 -114.94213867 187.44042969 C-110.37247704 184 -110.37247704 184 -106.4375 184 C-103.98620715 184.47818781 -101.60012183 185.10718957 -99.1875 185.75390625 C-75.637981 191.61298129 -50.04163428 188.35260154 -29.12451172 175.88183594 C-7.25515805 162.01910527 6.78653508 141.85750365 12.4765625 116.6875 C17.01215958 93.40025527 12.77026922 67.69817586 -0.46459961 47.83325195 C-5.16203555 41.1056598 -10.62549653 35.19497782 -16.625 29.625 C-17.800625 28.325625 -17.800625 28.325625 -19 27 C-18.70139278 23.66102838 -17.19963944 21.67611166 -15.125 19.125 C-14.50753906 18.35542969 -13.89007812 17.58585937 -13.25390625 16.79296875 C-12.51011719 15.87128906 -11.76632812 14.94960938 -11 14 C-9.01464163 11.48401825 -7.03924183 8.96025377 -5.0625 6.4375 C-4.09532988 5.20681288 -3.12790364 3.97632698 -2.16015625 2.74609375 C-1.44730469 1.83988281 -0.73445313 0.93367188 0 0 Z " fill="#F6F6F6" transform="translate(1443,370)"/>
<path d="M0 0 C6.59932156 -0.92780656 13.48457204 -1.74834054 20 0 C23.99393381 3.66691372 25.74358069 7.71501986 27.87939453 12.62792969 C30.00492793 17.12720692 32.76080948 21.25141833 35.4375 25.4375 C35.95892578 26.28417236 36.48035156 27.13084473 37.01757812 28.00317383 C37.50548828 28.7845874 37.99339844 29.56600098 38.49609375 30.37109375 C38.93107178 31.07161865 39.3660498 31.77214355 39.81420898 32.49389648 C40.20552002 32.99091064 40.59683105 33.4879248 41 34 C41.66 34 42.32 34 43 34 C44.40812444 31.90173985 45.68350952 29.81401217 46.9375 27.625 C47.73739795 26.2598987 48.5382225 24.89534005 49.33984375 23.53125 C49.7663623 22.80164063 50.19288086 22.07203125 50.63232422 21.3203125 C53.04420599 17.22846595 55.52282082 13.17753002 58 9.125 C58.48073975 8.33432129 58.96147949 7.54364258 59.45678711 6.72900391 C59.90417236 5.99601074 60.35155762 5.26301758 60.8125 4.5078125 C61.21082031 3.85441895 61.60914063 3.20102539 62.01953125 2.52783203 C63 1 63 1 64 0 C65.41570123 -0.08651611 66.835595 -0.10704904 68.25390625 -0.09765625 C69.53491211 -0.09282227 69.53491211 -0.09282227 70.84179688 -0.08789062 C72.18854492 -0.07532227 72.18854492 -0.07532227 73.5625 -0.0625 C74.46419922 -0.05798828 75.36589844 -0.05347656 76.29492188 -0.04882812 C78.53001314 -0.03700225 80.76497437 -0.0205222 83 0 C81.44607302 4.37924876 79.17014946 8.16314777 76.6875 12.0625 C76.25743652 12.74425293 75.82737305 13.42600586 75.38427734 14.12841797 C70.61512335 21.66088085 65.75353686 29.13451919 60.8828125 36.6015625 C60.39071289 37.36243164 59.89861328 38.12330078 59.39160156 38.90722656 C58.52638452 40.20839156 57.63176688 41.4910693 56.69433594 42.74121094 C54.90532034 45.14649412 53.9876717 46.52282216 54.06640625 49.5703125 C55.10281084 52.26756628 56.34128156 54.4637712 57.9375 56.875 C58.57042969 57.83921875 59.20335937 58.8034375 59.85546875 59.796875 C60.56316406 60.85390625 61.27085937 61.9109375 62 63 C62.76715118 64.15089232 63.53407087 65.30193898 64.30078125 66.453125 C65.53420657 68.30363652 66.76892502 70.15322036 68.00756836 72.00024414 C71.88941123 77.79764894 75.67057774 83.65826886 79.42089844 89.54150391 C79.85950195 90.22519043 80.29810547 90.90887695 80.75 91.61328125 C81.13671875 92.21954346 81.5234375 92.82580566 81.921875 93.45043945 C83.04676088 95.16448846 83.04676088 95.16448846 85 97 C88.29643949 89.03058584 91.38611012 81.03115592 94.1875 72.875 C97.45965527 63.37817441 100.99500729 53.99119822 104.57836914 44.60791016 C105.04879639 43.3760498 105.51922363 42.14418945 106.00390625 40.875 C106.24351578 40.24765961 106.48312531 39.62031921 106.72999573 38.97396851 C108.62205394 34.01166537 110.48535097 29.03895068 112.33984375 24.0625 C112.75302101 22.95488312 112.75302101 22.95488312 113.17454529 21.82489014 C114.25974928 18.91522863 115.34479594 16.0055233 116.4246521 13.09387207 C117.16877654 11.08774079 117.91612438 9.08283691 118.6640625 7.078125 C119.09154785 5.92731445 119.5190332 4.77650391 119.95947266 3.59082031 C121 1 121 1 122 0 C123.4887186 -0.08669432 124.981445 -0.10703494 126.47265625 -0.09765625 C127.37177734 -0.09443359 128.27089844 -0.09121094 129.19726562 -0.08789062 C130.61555664 -0.07532227 130.61555664 -0.07532227 132.0625 -0.0625 C133.4865918 -0.05573242 133.4865918 -0.05573242 134.93945312 -0.04882812 C137.29303065 -0.0370011 139.64648477 -0.02052025 142 0 C152.94259668 28.62426718 152.94259668 28.62426718 157.62890625 42.0859375 C159.10563626 46.32313971 160.63844492 50.53875876 162.1875 54.75 C162.46577637 55.50780762 162.74405273 56.26561523 163.03076172 57.04638672 C164.68767578 61.53081151 166.3800299 66.00027008 168.10328674 70.45965576 C169.11242967 73.07124682 170.11673979 75.68469021 171.12149048 78.29797363 C171.61934464 79.58770445 172.11992725 80.87638574 172.62338257 82.16394043 C173.33620704 83.98695197 174.03934075 85.81374344 174.7421875 87.640625 C175.1532373 88.69797852 175.56428711 89.75533203 175.98779297 90.84472656 C177 94 177 94 178 101 C172.06 101 166.12 101 160 101 C156.13795463 92.06212357 153.10208376 83.30625128 150 74 C131.685 73.505 131.685 73.505 113 73 C112.01 76.3 111.02 79.6 110 83 C108.95012054 86.21349965 107.89185594 89.42157818 106.8125 92.625 C106.53986328 93.43839844 106.26722656 94.25179687 105.98632812 95.08984375 C105.32562317 97.06036729 104.66301911 99.0302539 104 101 C98.61136468 101.37317419 93.23033218 101.64387903 87.83178711 101.82397461 C86.00037685 101.89905226 84.16985564 102.0011745 82.34155273 102.1315918 C67.61299564 103.15524458 67.61299564 103.15524458 63.34436035 99.63439941 C60.42743308 96.08876482 58.57928875 92.08822984 56.81576538 87.87612915 C55.71763254 85.35060027 54.30682797 83.08740001 52.8203125 80.7734375 C52.3665625 80.03222656 51.9128125 79.29101562 51.4453125 78.52734375 C51.00960937 77.81707031 50.57390625 77.10679687 50.125 76.375 C49.21075175 74.8829263 48.29668394 73.39074202 47.3828125 71.8984375 C46.76067871 70.88668457 46.76067871 70.88668457 46.12597656 69.85449219 C45.16047504 68.26430365 44.22905422 66.65350945 43.3046875 65.0390625 C42.16000339 62.8665135 42.16000339 62.8665135 40 62 C39.73832031 62.7115625 39.47664063 63.423125 39.20703125 64.15625 C37.69433999 67.72013102 35.74440556 70.8771749 33.63378906 74.11791992 C31.25290065 77.81953721 29.20877417 81.5581882 27.28515625 85.51953125 C19.93338198 99.91877646 19.93338198 99.91877646 14.45654297 101.9375 C8.50933461 102.81872482 2.87142676 102.10638052 -3 101 C-0.52390294 95.85733687 2.1272106 91.07440186 5.375 86.375 C10.46669885 78.8786155 15.33185521 71.24667463 20.17724609 63.58935547 C20.74523926 62.6923291 21.31323242 61.79530273 21.8984375 60.87109375 C22.43178711 60.02272949 22.96513672 59.17436523 23.51464844 58.30029297 C24.77719041 56.34505456 26.1039931 54.47538294 27.4765625 52.59765625 C29.21714141 50.22992186 29.21714141 50.22992186 28.77783203 48.14624023 C27.83361581 45.54090287 26.55688602 43.40806012 25.078125 41.0625 C24.4704126 40.09393066 23.8627002 39.12536133 23.23657227 38.12744141 C22.58100342 37.09538574 21.92543457 36.06333008 21.25 35 C20.58347412 33.94087402 19.91694824 32.88174805 19.23022461 31.79052734 C14.2010099 23.82308905 9.0824733 15.9140581 3.86230469 8.0703125 C3.3521582 7.296875 2.84201172 6.5234375 2.31640625 5.7265625 C1.86724854 5.05189941 1.41809082 4.37723633 0.95532227 3.68212891 C0 2 0 2 0 0 Z M131 17 C130.731875 17.97195313 130.46375 18.94390625 130.1875 19.9453125 C127.41944615 29.75602931 124.16860406 39.31569421 120.59179688 48.86181641 C120.25599609 49.76206543 119.92019531 50.66231445 119.57421875 51.58984375 C119.27088623 52.39284912 118.96755371 53.19585449 118.6550293 54.02319336 C117.89515364 55.96933064 117.89515364 55.96933064 118 58 C126.91 58 135.82 58 145 58 C143.27387043 51.67085824 141.59888341 45.54732859 139.51953125 39.36328125 C139.30181564 38.71296432 139.08410004 38.0626474 138.85978699 37.3926239 C138.18023191 35.36493724 137.49646742 33.33870197 136.8125 31.3125 C136.34411798 29.91741271 135.87601717 28.52223097 135.40820312 27.12695312 C134.27536759 23.75020966 133.13875892 20.37475118 132 17 C131.67 17 131.34 17 131 17 Z " fill="#EFEFEF" transform="translate(158,625)"/>
<path d="M0 0 C7.92 0 15.84 0 24 0 C28.49403937 11.23509842 28.49403937 11.23509842 30.19140625 16.23046875 C30.57369385 17.34856934 30.95598145 18.46666992 31.34985352 19.61865234 C31.75002686 20.79637207 32.1502002 21.9740918 32.5625 23.1875 C33.43605961 25.74659975 34.31050171 28.30536131 35.1875 30.86328125 C35.41309097 31.52126709 35.63868195 32.17925293 35.87110901 32.85717773 C37.56098589 37.76730346 39.30125906 42.65803456 41.0625 47.54296875 C41.31410385 48.2428038 41.5657077 48.94263885 41.82493591 49.66368103 C43.30272806 53.77345301 43.30272806 53.77345301 44.79421997 57.87826538 C45.4845104 59.76829362 46.16623717 61.66144276 46.84765625 63.5546875 C47.23961182 64.63218262 47.63156738 65.70967773 48.03540039 66.81982422 C49.0630234 70.20778104 49.58561943 73.48842226 50 77 C50.66 77 51.32 77 52 77 C52.10828125 76.34128906 52.2165625 75.68257812 52.328125 75.00390625 C53.17775335 71.20527717 54.44622924 67.59798436 55.75 63.9375 C56.04511475 63.10186523 56.34022949 62.26623047 56.64428711 61.40527344 C59.91619315 52.17471537 63.24111379 42.9628475 66.5625 33.75 C66.83549927 32.99226288 67.10849854 32.23452576 67.38977051 31.4538269 C71.18074958 20.93856247 75.05701582 10.45928434 79 0 C87.25 0 95.5 0 104 0 C104 33.33 104 66.66 104 101 C98.39 101 92.78 101 87 101 C86.67 75.92 86.34 50.84 86 25 C82.535 35.395 82.535 35.395 79 46 C77.19080838 51.03243548 75.3675989 56.05236294 73.5 61.0625 C69.94206698 70.66819435 66.44551308 80.29088108 63.10546875 89.97485352 C62.72648438 91.07204712 62.72648438 91.07204712 62.33984375 92.19140625 C62.12706787 92.81217041 61.91429199 93.43293457 61.69506836 94.07250977 C60.85454946 96.4033481 59.92021582 98.69946045 59 101 C53.72 101 48.44 101 43 101 C38.96797037 91.6506854 35.56404676 82.2001236 32.3125 72.5625 C26.92726118 56.68992304 21.46418386 40.8461332 16 25 C16 50.08 16 75.16 16 101 C10.72 101 5.44 101 0 101 C0 67.67 0 34.34 0 0 Z " fill="#EFEFEF" transform="translate(658,625)"/>
<path d="M0 0 C8.25 0 16.5 0 25 0 C25.94875 2.7225 26.8975 5.445 27.875 8.25 C30.4233306 15.54693312 33.00690134 22.83064444 35.61425781 30.10668945 C39.48650882 40.91284926 43.33688908 51.726529 47.125 62.5625 C47.71063721 64.22176514 47.71063721 64.22176514 48.30810547 65.91455078 C48.66275879 66.93403809 49.01741211 67.95352539 49.3828125 69.00390625 C49.69621582 69.89924072 50.00961914 70.7945752 50.33251953 71.71704102 C51 74 51 74 51 77 C51.66 77 52.32 77 53 77 C53.34998047 75.16888672 53.34998047 75.16888672 53.70703125 73.30078125 C55.10062285 67.04366491 57.40632023 61.16577887 59.6875 55.1875 C60.59513092 52.77395635 61.50137159 50.35988946 62.40625 47.9453125 C63.07140625 46.17269043 63.07140625 46.17269043 63.75 44.36425781 C65.45222918 39.78286757 67.08433657 35.17934946 68.6875 30.5625 C68.95989502 29.7792334 69.23229004 28.9959668 69.51293945 28.18896484 C70.3440882 25.79337368 71.17247286 23.39684449 72 21 C73.28829472 17.26965502 74.58058382 13.54072466 75.875 9.8125 C76.17365967 8.94375244 76.47231934 8.07500488 76.7800293 7.17993164 C77.19442261 5.98678345 77.19442261 5.98678345 77.6171875 4.76953125 C77.98239502 3.71149292 77.98239502 3.71149292 78.35498047 2.63208008 C79 1 79 1 80 0 C87.92 0 95.84 0 104 0 C104 33.33 104 66.66 104 101 C98.72 101 93.44 101 88 101 C87.67 75.92 87.34 50.84 87 25 C82.62274919 37.03743974 78.28887105 49.02692418 74.10791016 61.12353516 C71.41618455 68.88256471 68.63154405 76.60657255 65.81314087 84.3203125 C65.31414552 85.68618472 64.81607272 87.05239434 64.31893921 88.41894531 C63.62318236 90.3298725 62.9230201 92.23919398 62.22265625 94.1484375 C61.81797119 95.25364746 61.41328613 96.35885742 60.99633789 97.49755859 C60 100 60 100 59 101 C56.30345146 101.07319621 53.63308542 101.09242537 50.9375 101.0625 C50.17888672 101.05798828 49.42027344 101.05347656 48.63867188 101.04882812 C46.75908129 101.0370068 44.87953101 101.01907078 43 101 C29.5130403 62.82700579 29.5130403 62.82700579 24.66015625 48.05078125 C22.13188482 40.35888723 19.56041774 32.68125322 17 25 C17 50.08 17 75.16 17 101 C11.39 101 5.78 101 0 101 C0 67.67 0 34.34 0 0 Z " fill="#F0F0F0" transform="translate(1097,625)"/>
<path d="M0 0 C1.4694104 0.00858032 1.4694104 0.00858032 2.96850586 0.01733398 C9.89249531 0.18914657 15.79252663 0.75573613 21.1875 5.5 C26.01848439 10.70698082 27.34815927 15.32158768 27.4375 22.3125 C27.46328125 23.51519531 27.4890625 24.71789062 27.515625 25.95703125 C26.82801338 33.38159959 22.29592274 38.43180106 17.1875 43.5 C14.60513658 45.63090129 11.94818963 47.60695569 9.1875 49.5 C15.65569985 56.94142437 22.25482471 63.6336728 30.1875 69.5 C31.12623691 67.47974095 32.06342803 65.4587636 33 63.4375 C33.52207031 62.31214844 34.04414062 61.18679688 34.58203125 60.02734375 C36.16873281 56.54123302 37.67870219 53.02052823 39.1875 49.5 C44.7975 49.5 50.4075 49.5 56.1875 49.5 C55.06102278 58.51181773 55.06102278 58.51181773 53.734375 61.53515625 C53.29931641 62.53192383 53.29931641 62.53192383 52.85546875 63.54882812 C52.55253906 64.21333984 52.24960937 64.87785156 51.9375 65.5625 C51.50630859 66.56506836 51.50630859 66.56506836 51.06640625 67.58789062 C49.49433909 71.11989304 47.7648459 74.20374716 45.453125 77.30859375 C42.89806227 80.25540159 42.89806227 80.25540159 43.1875 83.5 C44.6133111 85.06708231 44.6133111 85.06708231 46.5625 86.5625 C50.0825091 89.51476569 53.41499489 92.58661177 56.6875 95.8125 C57.5434375 96.65425781 58.399375 97.49601563 59.28125 98.36328125 C61.1875 100.5 61.1875 100.5 61.1875 102.5 C41.58134124 103.81517061 41.58134124 103.81517061 35.9453125 100.71875 C34.03866144 98.73527417 32.52607899 96.89873356 31.1875 94.5 C26.08855574 96.47286254 21.18646121 98.8241906 16.24609375 101.16015625 C6.29505172 105.51929727 -8.89304178 105.31807788 -19.125 102 C-25.72403483 98.99271037 -31.0198621 94.41303658 -34.8125 88.25 C-37.48697206 78.22072978 -37.88462825 68.49515129 -32.625 59.3125 C-28.92223104 53.84026622 -24.23064589 49.44489269 -17.8125 47.5 C-19.74407728 44.05075485 -21.61854197 40.76811845 -23.9375 37.5625 C-27.62704434 31.53624425 -28.93318811 24.54309648 -27.3828125 17.56640625 C-25.22893223 10.7457854 -21.01121767 5.27706537 -14.75390625 1.80078125 C-9.95915705 -0.09409244 -5.0950586 -0.03411388 0 0 Z M-9.75 18.125 C-11.4724561 21.97519599 -10.84402004 25.48543551 -9.8125 29.5 C-7.69737591 33.43850692 -5.57577602 36.08075113 -1.8125 38.5 C3.82077536 35.14685991 8.68409846 31.12585076 11.25 24.9375 C11.15920185 21.39637207 10.16155619 19.42924468 8.1875 16.5 C1.44335589 12.19522716 -3.69782962 13.04898613 -9.75 18.125 Z M-11.25 61.25 C-12.05308594 61.94609375 -12.85617187 62.6421875 -13.68359375 63.359375 C-17.11216114 66.80681524 -18.12202999 69.54225015 -18.25 74.375 C-18.16794723 77.8571144 -17.87990151 80.14200426 -15.75 82.9375 C-10.01018927 87.94456894 -5.21656907 89.06624327 2.26171875 88.859375 C7.17109045 88.25635471 11.80926274 86.80880589 16.1875 84.5 C16.8475 83.51 17.5075 82.52 18.1875 81.5 C13.81115573 76.36710686 9.37211548 71.62392811 4.21484375 67.2734375 C1.2382772 64.66965867 -1.49440527 61.84175327 -4.24609375 59.00390625 C-7.25546843 56.11460637 -8.5023938 58.84089888 -11.25 61.25 Z " fill="#EEEEEE" transform="translate(583.8125,623.5)"/>
<path d="M0 0 C1.21623047 -0.02449219 2.43246094 -0.04898438 3.68554688 -0.07421875 C16.76246729 -0.11633444 25.88827911 3.53252776 35.40625 12.3046875 C45.86965613 22.96330643 48.2699093 37.49728856 48.5625 51.9375 C48.26354496 66.58629708 45.00515661 81.70322748 34.3125 92.375 C21.4340992 103.62124237 7.41691808 104.45089117 -9.00537109 103.59375 C-19.81839261 102.71185784 -29.45928146 97.40755986 -36.56640625 89.20703125 C-44.59903525 77.83250647 -47.07543881 65.23201189 -47 51.5625 C-46.99436035 50.49805664 -46.9887207 49.43361328 -46.98291016 48.33691406 C-46.86910277 40.98788662 -46.42276954 34.27037532 -43.6875 27.375 C-43.29691406 26.36566406 -42.90632812 25.35632813 -42.50390625 24.31640625 C-38.23043326 14.61937548 -31.34299566 7.55793717 -21.671875 3.12890625 C-14.23917616 0.30506594 -7.91015417 0.00825264 0 0 Z M-19.2421875 21.609375 C-27.85387646 32.12960044 -29.6599414 45.2470411 -28.6875 58.375 C-27.15593898 68.90448199 -24.13281124 77.39185512 -15.625 84.12109375 C-8.93059338 88.45356255 -1.49900949 89.31108998 6.3125 88.375 C13.35398897 86.86610951 18.41565653 84.38638791 22.87890625 78.66015625 C30.40540297 66.66287946 30.83618768 51.89877508 28.8515625 38.19140625 C28.19252348 35.76846868 27.39386707 33.6397499 26.3125 31.375 C25.89871094 30.50488281 25.48492188 29.63476562 25.05859375 28.73828125 C21.58634244 22.25737621 17.56273338 18.15182571 10.5234375 15.76953125 C0.32193577 13.94912193 -11.22242315 14.33461608 -19.2421875 21.609375 Z " fill="#F0F0F0" transform="translate(939.6875,623.625)"/>
<path d="M0 0 C51.42857143 0 51.42857143 0 62.8125 10.625 C67.63922802 16.96823378 68.98737537 26.24006401 68 34 C66.50156749 41.74865099 62.42778814 48.68584067 56.05859375 53.453125 C51.76298415 56 51.76298415 56 49 56 C54.9528951 65.46787819 60.92222513 74.92414389 67 84.3125 C67.44384033 84.99820068 67.88768066 85.68390137 68.3449707 86.39038086 C68.76738037 87.04143799 69.18979004 87.69249512 69.625 88.36328125 C70.02332031 88.97896973 70.42164063 89.5946582 70.83203125 90.22900391 C71.60374663 91.39915929 72.39267862 92.55816005 73.19921875 93.70458984 C76 97.70061678 76 97.70061678 76 101 C69.32471662 102.31775285 62.51865652 103.49896484 56 101 C50.48440651 95.9141082 47.5644808 88.59668027 44.42724609 81.90820312 C42.33333883 77.64158948 39.79431474 73.71660834 37.1875 69.75 C33 63.28486619 33 63.28486619 33 61 C28.05 61 23.1 61 18 61 C18 74.2 18 87.4 18 101 C12.06 101 6.12 101 0 101 C0 67.67 0 34.34 0 0 Z M18 15 C18 25.23 18 35.46 18 46 C20.97 46.0825 23.94 46.165 27 46.25 C27.91910156 46.28641602 28.83820313 46.32283203 29.78515625 46.36035156 C35.69826257 46.43895632 40.07552782 45.34714793 45 42 C48.58407762 38.32632044 49.27015703 35.41762684 49.4375 30.4375 C49.25808819 26.16634142 48.96665759 23.26332334 46 20 C41.20463056 16.32695107 37.63526156 14.85974813 31.671875 14.90234375 C30.5905127 14.90609009 30.5905127 14.90609009 29.48730469 14.90991211 C28.13233887 14.92356812 28.13233887 14.92356812 26.75 14.9375 C22.41875 14.9684375 22.41875 14.9684375 18 15 Z " fill="#EFEFEF" transform="translate(1008,625)"/>
<path d="M0 0 C5.94 0 11.88 0 18 0 C18.01981934 1.9166748 18.03963867 3.83334961 18.06005859 5.80810547 C18.12810941 12.17441879 18.20490449 18.54058086 18.28752708 24.90672112 C18.33725649 28.76264801 18.38358644 32.61855056 18.421875 36.47460938 C18.45902559 40.20300637 18.5054616 43.93118726 18.55806351 47.65939713 C18.57645071 49.07454727 18.59161504 50.48974346 18.60334396 51.90496445 C18.59938014 67.8296644 18.59938014 67.8296644 25 82 C32.37236029 86.70576189 41.32371708 87.11598773 49.76171875 85.45703125 C54.43825841 83.96808813 57.37885626 82.25433715 59.74487305 77.88134766 C63.10482506 70.63192452 62.72983277 63.08641385 62.70703125 55.2734375 C62.72016901 53.67345312 62.73547955 52.07348525 62.75285339 50.47354126 C62.79247409 46.29456722 62.80287888 42.1160293 62.80688477 37.93688965 C62.81625983 33.65961671 62.85370036 29.38259543 62.88867188 25.10546875 C62.95301407 16.73693097 62.98384652 8.36876966 63 0 C69.27 0 75.54 0 82 0 C82.0454215 8.39808514 82.08201342 16.79607266 82.10362434 25.1942482 C82.11400333 29.09504051 82.12805313 32.99574347 82.15087891 36.89648438 C82.1728196 40.67015189 82.18461271 44.44373418 82.18975449 48.21746063 C82.19341256 49.64775685 82.2005542 51.0780491 82.21146011 52.50830841 C82.31713247 66.95875657 80.93998448 78.32002529 73.3125 90.75 C64.17536465 99.64018575 53.01850246 102.56616287 40.625 102.4375 C39.09927368 102.42614014 39.09927368 102.42614014 37.54272461 102.41455078 C26.64527597 102.17466158 18.02204639 99.63501784 10 92 C1.89680273 83.12331572 -0.13529514 73.73585101 -0.11352539 61.87133789 C-0.11367142 61.19731934 -0.11381744 60.52330078 -0.1139679 59.82885742 C-0.11327769 57.62675628 -0.10552764 55.4247424 -0.09765625 53.22265625 C-0.09578889 51.68566433 -0.09436649 50.14867181 -0.09336853 48.61167908 C-0.08956837 44.58562549 -0.0797597 40.55960854 -0.06866455 36.53356934 C-0.0583964 32.41756689 -0.05385938 28.30155847 -0.04882812 24.18554688 C-0.03813497 16.12367931 -0.02055868 8.06184845 0 0 Z " fill="#EBEBEB" transform="translate(1225,625)"/>
<path d="M0 0 C6.6 0 13.2 0 20 0 C23.44746788 8.13968523 26.65888306 16.32156242 29.6875 24.625 C33.12673526 33.99112327 36.64352021 43.32202268 40.25 52.625 C43.26775081 60.4188761 46.21067907 68.22466086 48.94091797 76.12402344 C50.89441002 81.76869865 52.99680142 87.35190609 55.17285156 92.91455078 C56.26996268 95.7725031 57 97.90810618 57 101 C50.73 101 44.46 101 38 101 C37.51789063 99.61425781 37.03578125 98.22851562 36.5390625 96.80078125 C35.9011012 94.97133341 35.26307707 93.14190747 34.625 91.3125 C34.30789063 90.40048828 33.99078125 89.48847656 33.6640625 88.54882812 C33.3546875 87.66259766 33.0453125 86.77636719 32.7265625 85.86328125 C32.30238037 84.64572144 32.30238037 84.64572144 31.86962891 83.40356445 C31.25773751 81.71235985 30.59336453 80.03968438 29.89208984 78.38354492 C29 76 29 76 29 73 C16.79 73.33 4.58 73.66 -8 74 C-13.0554624 87.48068493 -13.0554624 87.48068493 -18 101 C-24.27 101 -30.54 101 -37 101 C-34.60445294 92.62760309 -31.7049904 84.4759118 -28.6875 76.3125 C-28.18975651 74.95915528 -27.69203529 73.60580236 -27.19433594 72.25244141 C-24.37939035 64.61816204 -21.45431454 57.04379211 -18.375 49.51171875 C-16.39902546 44.46512468 -14.66220925 39.34201054 -12.90112305 34.21728516 C-8.90674436 22.69794875 -4.424426 11.3592909 0 0 Z M9 19 C8.72027344 20.00675781 8.44054688 21.01351562 8.15234375 22.05078125 C5.57475635 31.14724796 2.6400326 40.0180506 -0.76391602 48.84106445 C-1.05451904 49.60249756 -1.34512207 50.36393066 -1.64453125 51.1484375 C-1.90596924 51.82052246 -2.16740723 52.49260742 -2.43676758 53.18505859 C-3.14819355 55.16081277 -3.14819355 55.16081277 -3 58 C5.91 58 14.82 58 24 58 C23.14535156 55.43605469 22.29070312 52.87210938 21.41015625 50.23046875 C17.94010417 39.8203125 14.47005208 29.41015625 11 19 C10.34 19 9.68 19 9 19 Z " fill="#EFEFEF" transform="translate(1430,625)"/>
<path d="M0 0 C2.06298828 -0.34057617 2.06298828 -0.34057617 4.5703125 -0.29296875 C5.46621094 -0.28330078 6.36210937 -0.27363281 7.28515625 -0.26367188 C8.69087891 -0.2259668 8.69087891 -0.2259668 10.125 -0.1875 C11.06988281 -0.17396484 12.01476562 -0.16042969 12.98828125 -0.14648438 C15.32608779 -0.11106306 17.66276237 -0.06167271 20 0 C28.70732493 23.03049635 28.70732493 23.03049635 32.1875 33.0625 C33.99464589 38.2668575 35.92046558 43.39836978 38 48.5 C40.35511486 54.27769958 42.48890552 60.10578004 44.52587891 66.00268555 C46.07366899 70.45446774 47.6982521 74.86992474 49.37890625 79.2734375 C49.79100342 80.3550415 50.20310059 81.43664551 50.62768555 82.55102539 C51.44784012 84.69556345 52.27337377 86.83805344 53.10473633 88.97827148 C53.48009521 89.96126221 53.8554541 90.94425293 54.2421875 91.95703125 C54.5810498 92.83335205 54.91991211 93.70967285 55.26904297 94.61254883 C56 97 56 97 56 101 C50.06 101 44.12 101 38 101 C34.13795463 92.06212357 31.10208376 83.30625128 28 74 C9.685 73.505 9.685 73.505 -9 73 C-9.99 76.3 -10.98 79.6 -12 83 C-13.02127893 86.03081035 -14.05521998 89.04937589 -15.125 92.0625 C-15.38925781 92.81982422 -15.65351563 93.57714844 -15.92578125 94.35742188 C-17.8757585 99.8757585 -17.8757585 99.8757585 -19 101 C-20.34267413 101.08631874 -21.68974322 101.10706473 -23.03515625 101.09765625 C-23.84404297 101.09443359 -24.65292969 101.09121094 -25.48632812 101.08789062 C-26.33646484 101.07951172 -27.18660156 101.07113281 -28.0625 101.0625 C-28.91650391 101.05798828 -29.77050781 101.05347656 -30.65039062 101.04882812 C-32.76695663 101.03700373 -34.88348685 101.01906769 -37 101 C-36.33201274 94.88374165 -34.11002621 89.35900613 -32 83.625 C-31.59773193 82.5208374 -31.19546387 81.4166748 -30.78100586 80.27905273 C-29.52816105 76.84989329 -28.26610883 73.42428261 -27 70 C-26.43369873 68.46835205 -26.43369873 68.46835205 -25.85595703 66.90576172 C-21.18899201 54.3192238 -16.38473506 41.78752516 -11.53735352 29.26953125 C-8.8194227 22.22061927 -6.21188777 15.14442425 -3.80004883 7.98461914 C-2.77654017 4.9847335 -1.77446636 2.66169954 0 0 Z M9 17 C8.78384033 17.71953857 8.56768066 18.43907715 8.3449707 19.18041992 C0.79447466 44.23442978 0.79447466 44.23442978 -3.1875 53.875 C-4.11904582 55.93217822 -4.11904582 55.93217822 -4 58 C4.91 58 13.82 58 23 58 C21.27387043 51.67085824 19.59888341 45.54732859 17.51953125 39.36328125 C17.30181564 38.71296432 17.08410004 38.0626474 16.85978699 37.3926239 C16.18023191 35.36493724 15.49646742 33.33870197 14.8125 31.3125 C14.34411798 29.91741271 13.87601717 28.52223097 13.40820312 27.12695312 C12.27536759 23.75020966 11.13875892 20.37475118 10 17 C9.67 17 9.34 17 9 17 Z " fill="#F0F0F0" transform="translate(486,625)"/>
<path d="M0 0 C19.14 0 38.28 0 58 0 C58 4.95 58 9.9 58 15 C44.8 15 31.6 15 18 15 C18 23.58 18 32.16 18 41 C30.54 41 43.08 41 56 41 C56 45.95 56 50.9 56 56 C43.46 56 30.92 56 18 56 C18 65.9 18 75.8 18 86 C31.2 86 44.4 86 58 86 C58 90.95 58 95.9 58 101 C38.86 101 19.72 101 0 101 C0 67.67 0 34.34 0 0 Z " fill="#EEEEEE" transform="translate(1535,625)"/>
<path d="M0 0 C19.14 0 38.28 0 58 0 C58 4.95 58 9.9 58 15 C44.8 15 31.6 15 18 15 C18 23.58 18 32.16 18 41 C30.54 41 43.08 41 56 41 C56 45.95 56 50.9 56 56 C43.46 56 30.92 56 18 56 C18 65.9 18 75.8 18 86 C31.2 86 44.4 86 58 86 C58 90.95 58 95.9 58 101 C38.86 101 19.72 101 0 101 C0 67.67 0 34.34 0 0 Z " fill="#EFEFEF" transform="translate(90,625)"/>
<path d="M0 0 C1.7332251 -0.00580078 1.7332251 -0.00580078 3.50146484 -0.01171875 C12.7002162 0.11194462 20.20569416 1.57626958 28.5625 5.4375 C28.01759777 9.39521091 27.1978752 12.69766892 25.5 16.3125 C24.95666016 17.48425781 24.95666016 17.48425781 24.40234375 18.6796875 C24.12519531 19.25976562 23.84804688 19.83984375 23.5625 20.4375 C22.2077138 20.14872471 20.85370698 19.85629283 19.5 19.5625 C18.74589844 19.40007813 17.99179687 19.23765625 17.21484375 19.0703125 C15.19831196 18.58919593 13.20458161 18.01136167 11.2265625 17.390625 C7.36187759 16.38531251 3.98812895 16.10340389 0 16.0625 C-1.25941406 16.03414062 -2.51882813 16.00578125 -3.81640625 15.9765625 C-8.05511648 16.51611785 -10.14709123 17.76072106 -13.4375 20.4375 C-15.92136059 24.16329089 -15.8179212 26.02461402 -15.4375 30.4375 C-11.37049428 38.67255507 -2.54226042 41.45264335 5.5 44.8125 C14.59071172 48.64235848 23.89999398 53.32442004 28.5625 62.4375 C29.86106962 66.33320887 29.82574136 70.06280392 29.875 74.125 C29.91850586 75.29192383 29.91850586 75.29192383 29.96289062 76.48242188 C30.04103496 83.689734 27.88166914 88.75214626 23.1875 94.1875 C13.76967889 102.25991809 4.47234901 103.98762567 -7.6875 103.875 C-9.3281543 103.86907837 -9.3281543 103.86907837 -11.00195312 103.86303711 C-30.35467937 103.52032063 -30.35467937 103.52032063 -35.4375 98.4375 C-35.51075168 95.57482433 -35.52988205 92.736781 -35.5 89.875 C-35.49548828 89.06869141 -35.49097656 88.26238281 -35.48632812 87.43164062 C-35.47450518 85.43356244 -35.45656914 83.43552217 -35.4375 81.4375 C-34.85484375 81.61925781 -34.2721875 81.80101562 -33.671875 81.98828125 C-30.93356194 82.82785837 -28.18673738 83.63443329 -25.4375 84.4375 C-24.4990625 84.72367188 -23.560625 85.00984375 -22.59375 85.3046875 C-12.76255047 88.07962285 -1.81520338 89.32678723 7.91796875 85.48046875 C9.85771816 84.43402577 9.85771816 84.43402577 11.125 81.625 C12.05308684 75.36496635 12.05308684 75.36496635 10.0078125 69.5 C7.04158668 65.78511016 4.3175579 64.35815099 0.0625 62.4375 C-0.64729004 62.09775146 -1.35708008 61.75800293 -2.08837891 61.40795898 C-5.30938668 59.86850141 -8.55353449 58.38486719 -11.8046875 56.91015625 C-20.21189344 52.96859606 -27.51027754 48.13879668 -32.5 40.125 C-35.02277621 30.20208023 -35.36156039 21.45740314 -30.375 12.3125 C-23.2373 1.58483254 -11.91907862 0.02720086 0 0 Z " fill="#EEEEEE" transform="translate(377.4375,623.5625)"/>
<path d="M0 0 C17.50682747 2.45779972 34.43461655 6.40145751 51.46386719 11.0390625 C54.54719688 11.8769516 57.6351833 12.69249227 60.7265625 13.5 C80.50027723 18.77398381 100.10373627 26.00635716 118 36 C118.64501465 36.3594873 119.2900293 36.71897461 119.95458984 37.08935547 C141.17956182 49.06574725 141.17956182 49.06574725 143.9453125 55.04296875 C144 57 144 57 142.97265625 58.6953125 C138.00559404 61.9804586 130.117519 61.48578587 124.41796875 60.59765625 C121.87495523 59.86551096 119.45927566 58.97872765 117 58 C92.23313759 48.27540752 66.45514047 42.22965624 40.27734375 37.67578125 C34.6121902 36.50763874 30.96495698 35.74534989 27.5625 30.875 C24.68008693 26.89238015 21.61092241 23.24704746 18.28515625 19.62890625 C17 18 17 18 17 16 C16.40960937 15.73832031 15.81921875 15.47664063 15.2109375 15.20703125 C12.88286401 13.9360512 11.43970001 12.60869648 9.625 10.6875 C7.37039473 8.35011225 5.10536183 6.20736188 2.5625 4.1875 C1.716875 3.465625 0.87125 2.74375 0 2 C0 1.34 0 0.68 0 0 Z " fill="#F1F1F1" transform="translate(1456,357)"/>
<path d="M0 0 C19.14 0 38.28 0 58 0 C58 4.95 58 9.9 58 15 C44.8 15 31.6 15 18 15 C18 24.9 18 34.8 18 45 C30.21 45 42.42 45 55 45 C55 49.95 55 54.9 55 60 C42.79 60 30.58 60 18 60 C18 73.53 18 87.06 18 101 C12.06 101 6.12 101 0 101 C0 67.67 0 34.34 0 0 Z " fill="#EEEEEE" transform="translate(823,625)"/>
<path d="M0 0 C25.41 0 50.82 0 77 0 C77 4.95 77 9.9 77 15 C67.1 15 57.2 15 47 15 C47 43.38 47 71.76 47 101 C41.39 101 35.78 101 30 101 C30 72.62 30 44.24 30 15 C20.1 15 10.2 15 0 15 C0 10.05 0 5.1 0 0 Z " fill="#F6F6F6" transform="translate(0,625)"/>
<path d="M0 0 C5.94 0 11.88 0 18 0 C18 28.05 18 56.1 18 85 C31.86 85 45.72 85 60 85 C63.77859468 88.77859468 61 95.65626015 61 101 C40.87 101 20.74 101 0 101 C0 67.67 0 34.34 0 0 Z " fill="#ECECEC" transform="translate(1330,625)"/>
<path d="M0 0 C7.92 0 15.84 0 24 0 C24 33.33 24 66.66 24 101 C18.72 101 13.44 101 8 101 C7.67 74.27 7.34 47.54 7 20 C7.66 19.67 8.32 19.34 9 19 C9 45.73 9 72.46 9 100 C13.62 100 18.24 100 23 100 C23 67.33 23 34.66 23 1 C10.79856484 0.92162456 10.79856484 0.92162456 -1 3 C-0.67 2.01 -0.34 1.02 0 0 Z " fill="#DBDBDB" transform="translate(1177,625)"/>
<path d="M0 0 C0.66 0.33 1.32 0.66 2 1 C-4.27 7.27 -10.54 13.54 -17 20 C-17.66 19.67 -18.32 19.34 -19 19 C-16.96293245 16.76647935 -14.92059146 14.53819245 -12.875 12.3125 C-12.30523437 11.68666016 -11.73546875 11.06082031 -11.1484375 10.41601562 C-7.64212118 6.61086553 -4.05147534 3.2202456 0 0 Z " fill="#B4B4B4" transform="translate(147,368)"/>
<path d="M0 0 C0.66 0 1.32 0 2 0 C1.67 6.6 1.34 13.2 1 20 C0.67 20 0.34 20 0 20 C-0.33 16.7 -0.66 13.4 -1 10 C-1.66 10 -2.32 10 -3 10 C-2.01 6.7 -1.02 3.4 0 0 Z " fill="#919191" transform="translate(916,416)"/>
<path d="M0 0 C0 0.66 0 1.32 0 2 C0.99 2.66 1.98 3.32 3 4 C-1.46236469 5.80619523 -4.31034294 6.11658501 -9 5 C-9 4.34 -9 3.68 -9 3 C-2.25 0 -2.25 0 0 0 Z " fill="#9E9E9E" transform="translate(337,366)"/>
<path d="M0 0 C1.18613892 0.00785522 1.18613892 0.00785522 2.39624023 0.01586914 C3.67724609 0.02070312 3.67724609 0.02070312 4.98413086 0.02563477 C5.88196289 0.03401367 6.77979492 0.04239258 7.70483398 0.05102539 C8.6065332 0.05553711 9.50823242 0.06004883 10.43725586 0.06469727 C12.67234712 0.07652315 14.90730835 0.09300319 17.14233398 0.11352539 C16.81233398 0.77352539 16.48233398 1.43352539 16.14233398 2.11352539 C15.0453418 2.06711914 13.94834961 2.02071289 12.81811523 1.97290039 C11.36371548 1.93536749 9.90928615 1.89896896 8.45483398 1.86352539 C7.73360352 1.83000977 7.01237305 1.79649414 6.26928711 1.76196289 C2.2603888 1.688741 0.57063721 1.82762052 -2.87719727 4.12915039 C-3.53075195 4.78399414 -4.18430664 5.43883789 -4.85766602 6.11352539 C-2.56663777 0.15685196 -2.56663777 0.15685196 0 0 Z " fill="#959595" transform="translate(223.857666015625,624.886474609375)"/>
<path d="M0 0 C0.66 0.33 1.32 0.66 2 1 C0.38113585 2.67262717 -1.2452729 4.33795537 -2.875 6 C-3.77992188 6.928125 -4.68484375 7.85625 -5.6171875 8.8125 C-8 11 -8 11 -10 11 C-8.55218207 7.55571735 -6.72305391 5.63869038 -3.875 3.25 C-3.15054688 2.63640625 -2.42609375 2.0228125 -1.6796875 1.390625 C-0.84824219 0.70226562 -0.84824219 0.70226562 0 0 Z " fill="#A4A4A4" transform="translate(912,630)"/>
<path d="M0 0 C7.92 0 15.84 0 24 0 C24 0.33 24 0.66 24 1 C23.34926514 1.02505615 22.69853027 1.0501123 22.02807617 1.07592773 C19.08101954 1.19193702 16.1342787 1.31464115 13.1875 1.4375 C11.65125977 1.49647461 11.65125977 1.49647461 10.08398438 1.55664062 C9.10107422 1.59853516 8.11816406 1.64042969 7.10546875 1.68359375 C6.19949951 1.72025146 5.29353027 1.75690918 4.36010742 1.79467773 C1.84951218 1.9208205 1.84951218 1.9208205 -1 3 C-0.67 2.01 -0.34 1.02 0 0 Z " fill="#969696" transform="translate(1177,625)"/>
<path d="M0 0 C0 3 0 3 -1.2421875 4.60546875 C-1.78101563 5.12753906 -2.31984375 5.64960937 -2.875 6.1875 C-3.40867187 6.71730469 -3.94234375 7.24710938 -4.4921875 7.79296875 C-6 9 -6 9 -8 9 C-6.4169423 4.7257442 -3.49431596 2.73468206 0 0 Z " fill="#9E9E9E" transform="translate(560,674)"/>
<path d="M0 0 C-1.49097658 3.7952131 -3.75700849 5.61042731 -7 8 C-4.18918919 0 -4.18918919 0 0 0 Z " fill="#A3A3A3" transform="translate(354,630)"/>
<path d="M0 0 C0.66 0.33 1.32 0.66 2 1 C-0.31 3.64 -2.62 6.28 -5 9 C-5.33 7.68 -5.66 6.36 -6 5 C-4.02 3.35 -2.04 1.7 0 0 Z " fill="#9B9B9B" transform="translate(181,443)"/>
<path d="M0 0 C0.66 0 1.32 0 2 0 C2 0.66 2 1.32 2 2 C1.34 2 0.68 2 0 2 C0 1.34 0 0.68 0 0 Z " fill="#7F7F7F" transform="translate(1439,371)"/>
<path d="M0 0 C2 1 2 1 2 1 Z " fill="#AFAFAF" transform="translate(299,372)"/>
</svg>
