<?xml version="1.0" encoding="UTF-8"?>
<svg id="Layer_1" data-name="Layer 1" xmlns="http://www.w3.org/2000/svg" viewBox="0 0 814.3 266.11">
  <defs>
    <style>
      .cls-1 {
        fill: #fff;
        stroke-width: 0px;
      }
    </style>
  </defs>
  <path class="cls-1" d="M174.2,88.61c3.1-1,6.2-1.9,9.2-2.8,33.2-9.8,66.5-19.1,100.1-27.2,19.3-4.7,38.8-8.9,58.4-12.1,13.1-2.2,26.3-3.5,39.6-3.9h2.3c-3.6,9-7.2,17.8-10.9,27,1.3,0,2.2.2,3.1,0,5-.2,10.1-.5,15.1-.7,11-.4,22-.7,33.1-1.1,11.4-.4,22.8-.9,34.3-1.3,11.5-.4,23-.7,34.5-1,16.3-.4,32.6-.9,48.9-1.2,12.8-.2,25.6-.3,38.4-.3s22.2.2,33.3.5c10.4.3,20.8.8,31.1,1.3,3.9.2,7.8.4,12.1.7-.6.5-.8.7-1.1.8-8.4,4.2-15.7,9.8-22.1,16.7-.7.8-1.4,1.2-2.5,1.2-1.9,0-3.8.2-5.8.3-9.1.5-18.2.8-27.3,1.4-9.3.6-18.7,1.3-28,2.1-8.8.8-17.6,1.7-26.5,2.7-8.6.9-17.1,1.9-25.7,3-9.1,1.1-18.2,2.3-27.3,3.5-10.2,1.4-20.4,3-30.6,4.6-12.3,2-24.6,3.9-36.9,6.1-20.1,3.6-40.2,7.3-60.3,11.2-19.5,3.8-38.9,8.1-58.4,12.2-7,1.4-14.1,1.9-21.6,2.5,13.9-20,27.7-39.6,41.7-59.8-48.2,9-95.9,17.8-143.4,26.7-2.4-4.5-4.7-8.7-7.2-13.2h.4v.1Z"/>
  <path class="cls-1" d="M464.1,107.21c-.3,3.8-.5,7.5-.8,11.2-.6,6.5-1.1,13-1.9,19.5-.5,4-1.8,8-3.4,11.7-4.3,9.8-11.7,15.8-22.1,18-7.9,1.7-15.9,2.6-24,2.6-23.2,0-46.4.5-69.6.5-53.1,0-106.2-.2-159.3-.2h-3.5c1.1-2.2,2-4.1,3-6,5.3-.4,10.6-.8,15.8-1.1,7.3-.4,14.5-.8,21.8-1.2,6.9-.4,13.9-.7,20.8-1.2,10.8-.7,21.5-1.5,32.3-2.2,7.1-.5,14.2-1,21.3-1.6,8.1-.7,16.2-1.3,24.4-2.1,9.2-.9,18.5-1.7,27.7-2.8,12.1-1.4,24.1-2.8,36.1-4.5,8.5-1.2,17.1-2.3,25.5-4.1,13.6-3,26.5-8,38-16,7.6-5.2,14-11.5,17.5-20.1,0,0,.2-.2.5-.4h-.1Z"/>
  <path class="cls-1" d="M399.8.41c-4.4,10.8-8.9,21-13.3,31.3-3.3.2-6.4.4-9.5.6-11,.7-21.9,2.3-32.8,4.2-43.8,7.3-86.6,18.9-129.1,31.7-13.8,4.1-27.4,8.6-41.2,12.9-.8.2-1.6.5-2.7.8.3-1.2,1.1-1.2,1.6-1.4,12-5.1,24-10.1,36-15.3,25-10.7,50.1-21.1,74.8-32.4,19-8.7,38.4-16.2,58.3-22.5,11.5-3.7,23.2-6.7,35.1-8.7,6.1-1,12.2-1.7,18.4-1.6,1.3,0,2.6.3,4.4.5h0v-.1Z"/>
  <path class="cls-1" d="M150.5,69.01c-5.5-2-10.8-3.9-16.1-5.8.5-.5,1-1.1,1.6-1.7,4.7-4.7,9.4-9.4,13.2-14.9,1.7-2.5,3.3-5.1,4.4-7.9,2-4.8,1-8.3-3.3-11.3-2.5-1.7-5.2-3.1-8-4.2-7.9-3.2-16.2-4.8-24.6-6.3-14.1-2.5-28.3-3.8-42.6-4.9-15.9-1.2-31.9-2.4-47.8-3.6-5.6-.4-11.2-.7-16.8-1.1-.9,0-1.8-.3-2.7-.5v-.6h2.5c19.5,0,39-.2,58.5-.4,31.2-.2,62.4-.5,93.5-.7,7.7,0,15.4.5,22.7,2.9,2.6.8,5.2,2,7.6,3.5,4.7,3,6.2,7.6,4.6,12.9-1,3.3-2.8,6.3-4.8,9.1-4.9,6.6-10.9,12.1-17.2,17.3-7.6,6.4-15.7,12.2-23.9,17.7-.4.3-.8.5-.9.5h.1Z"/>
  <path class="cls-1" d="M737.2,63.11c-.7.9-1,1.5-1.3,1.9-9.2,11.6-18.4,23.1-27.7,34.7-.4.6-.9,1.1-1.3,1.7-.5.9-.2,1.5.8,1.8.6.2,1.3,0,1.9.2,3.8.2,7.7.3,11.5.5.4,0,.7,0,1.5.2-.8.9-1.3,1.6-1.9,2.2-8.2,8.9-16.5,17.9-24.7,26.8-.7.7-1.7,1.3-1.2,2.9,5.4.2,10.8.4,16.2.7.6,1.1-.2,1.5-.7,1.9l-7.5,6c-20.3,16.3-40.7,32.6-61,48.9-.6.5-1.2.8-1.8,1.2,0,0-.2-.3-.4-.4.4-.5.7-1.1,1.1-1.6,9.1-11.2,18.1-22.4,27.2-33.6.7-.9,1.8-1.7,1.4-3.3-.6,0-1.3,0-2-.2h-10.6c-1.1,0-2.3-.4-4-.7.8-1.1,1.3-1.8,1.8-2.4,7.8-8.3,15.7-16.7,23.5-25,.8-.9,1.7-1.7,2.4-2.6.3-.4.7-1.2.5-1.4-.3-.4-1-.8-1.5-.8-4.2-.2-8.5-.3-12.7-.5-1,0-1.9-.2-2.9-.4,0-.2,0-.4-.2-.6.6-.6,1.1-1.2,1.7-1.7,7.1-5.6,14.2-11.2,21.3-16.8,16.5-13,33-26.1,49.5-39.1,0,0,.3,0,1-.3h0l.1-.2Z"/>
  <path class="cls-1" d="M99.3,156.01c-.8,0-1.6-.2-2.5-.2-3.7,0-7.3,0-11-.2-.9,0-2,0-2.6-1.2.5-.6,1-1.2,1.6-1.9,8.3-8.8,16.6-17.6,24.8-26.4.7-.8,2.2-1.5,1.4-2.7-.4-.6-1.8-.7-2.8-.8-3.7-.2-7.3-.2-11-.4-1.1,0-2.1-.3-3.1-.4-.3-1.4.6-1.7,1.2-2.1,4.4-3.5,8.8-7,13.2-10.4l57-45c.3-.3.7-.5,1.4-.5-.4.6-.8,1.2-1.3,1.8-9.1,11.4-18.3,22.9-27.4,34.3-.7.8-1.9,1.6-1.4,2.8.5,1.3,2,.7,3,.8,3.5.2,7,.3,10.5.5.6,0,1.2.2,2.2.3-.7.9-1.2,1.5-1.7,2.1-8.2,8.9-16.5,17.8-24.7,26.8-.7.7-1.6,1.8-1.4,2.5.3,1.2,1.8.6,2.7.7,3.9.2,7.8.3,11.7.4.6,0,1.3,0,1.8.2.5,1.2-.4,1.5-1,2-3.7,3-7.5,6-11.2,9-16.3,13.1-32.7,26.2-49,39.3-2.8,2.2-5.5,4.4-8.2,6.6-.5.4-1.1.8-2,.8.3-.5.5-1,.9-1.5,9.2-11.4,18.4-22.7,27.6-34.1.7-.8,1.6-1.6,1.3-3.2h0v.1Z"/>
  <path class="cls-1" d="M658.2,165.01c-.3.4-.5.8-.8,1.2-2.7,3.3-5.4,6.7-8.2,10-20.4-15.5-31.1-49.4-13.9-78.5,18.3-31,55.4-37,81.2-23.5-.7.4-1.2.6-1.6.9-4.1,3.1-8.2,6.1-12.2,9.3-1.1.9-2.1,1-3.5.8-15.2-3.1-28.9.3-40.7,10.4-19.9,17.2-20.9,48.4-2.3,67.2.7.7,1.5,1.1,2.3,1.7,0,.2-.2.3-.4.5h.1Z"/>
  <path class="cls-1" d="M146.1,74.51c-3.1,2.4-6.1,4.7-9.2,7-1.3,1-2.8,1.9-4,3-1.2,1-2.4,1.2-3.9.9-13.2-2.8-25.4-.3-36.5,7.3-23.2,16.1-26.3,50-6.4,70.1.7.7,1.4,1.5,2.3,2.4-3.1,3.8-6.1,7.5-9.1,11.2-21.2-15.9-31.8-52-12-81.5,20.3-30.3,57.5-32.5,78.8-20.4h0Z"/>
  <path class="cls-1" d="M659.9,183.51c.8-.7,1.4-1.2,2-1.7,3.1-2.3,6.2-4.5,9.3-6.8,1.3-1,2.4-1.1,4-.6,14.5,4.2,28.2,2.4,40.7-6.4,11.2-7.9,17.8-18.9,19.2-32.7,1.6-16-3.8-29.3-15.7-40.1-.3-.3-.7-.7-1.2-1.2,3.3-4.1,6.5-8.1,9.8-12.1,19.2,14.2,30.9,47.6,14.2,77.2-17.9,31.7-55.9,38.4-82.1,24.3h-.2v.1Z"/>
  <path class="cls-1" d="M90,183.61c.7-.5,1.2-1.1,1.9-1.5,3.1-2.3,6.2-4.5,9.3-6.8,1.2-1,2.3-1.2,3.9-.7,18.6,5.8,37.8,0,50.1-15.1,13.3-16.2,13.5-40.7.5-57.1-2.2-2.8-4.8-5.3-7.5-8.2,3.1-3.8,6.4-7.9,9.7-11.9,21.2,16.5,31.3,52.3,11.5,81.5-20.3,30.1-57.5,32.5-79.4,19.9h0v-.1Z"/>
  <path class="cls-1" d="M555.3,265.91c2.5-15.2,5-30.2,7.4-45.1,1.8-.5,16.8-.7,20.4-.2,1.3,9,2.7,18,4,27.1,2.5-4.3,4.2-8.9,6.1-13.4s3.8-9.1,5.7-13.7h21.6c-2.5,15.2-5,30.2-7.5,45.3h-11.5c1.8-11.6,3.6-23.1,5.3-34.6-.2,0-.4,0-.6-.2-5.2,11.6-10.4,23.2-15.6,34.8h-10.6c-2.3-12.2-4.6-24.3-6.9-36.5h-5.2c0,.2,0,.3-.2.4,1.5.6,3.1,1.2,4.7,1.9-1.9,11.4-3.9,22.7-5.8,34.1h-11.5.2v.1Z"/>
  <path class="cls-1" d="M510.6,220.41h34.9c5,0,7.8,2.8,7.5,7.8-.2,3.7-1,7.3-1.6,10.9-.4,2.5-.8,4.9-1.2,7.3-.8,4.7-2.7,6.5-7.5,6.7-.3,0-.6,0-1.1.2,1.5,4.2,3,8.3,4.6,12.6h-11.1c-1.6-4.2-3.2-8.5-4.8-12.7h-13.9c-.7,4.2-1.5,8.4-2.2,12.7h-10.8c-.2-1.9,5.5-37.8,7.2-45.5h0ZM514.7,231.11v.5c1.5.6,3.1,1.2,4.7,1.8-.4,3-.9,5.9-1.3,8.7.5.2.7.3,1,.3h18.5c1.7,0,2-.4,2.4-2.1.4-2.1.7-4.2,1-6.4.4-2.8-.5-3-2.6-3h-23.7v.2h0Z"/>
  <path class="cls-1" d="M751,265.91h-11c.7-4.3,1.3-8.4,2-12.7h-16.4c-.7,4.2-1.5,8.4-2.2,12.7h-11c0-.8,0-1.5.2-2.2,2-12.2,4-24.4,6.1-36.6.2-.9.3-1.9.7-2.8,1.1-2.5,2.9-3.9,5.8-3.9h24.7c5.1,0,8.1,3.5,7.4,8.6-.8,5.4-1.8,10.9-2.7,16.3-1,6.1-2,12.3-3,18.4,0,.7-.3,1.4-.5,2.2h-.1ZM727.3,242.41h15.4c.9,0,1.2-.6,1.3-1.4.4-2.4.8-4.7,1.1-7.1.4-2.4,0-2.9-2.4-2.9h-17.7c-.4,0-.8.2-1.6.3,2.1.8,3.6,1.4,5.3,2-.5,3-.9,5.8-1.4,9h0v.1Z"/>
  <path class="cls-1" d="M475.6,266.01h-12c-5.6,0-8.6-3.5-7.8-9.1.2-1.7.6-3.3.8-5,1.4-8.4,2.8-16.8,4.2-25.3,0-.6.2-1.3.5-1.9,1-2.9,3-4.4,6.1-4.4h26.1c4.2,0,7,2.8,7.1,7,0,1.3-.2,2.5-.4,3.8-1.5,9.5-3.1,18.9-4.7,28.3,0,.6-.2,1.3-.4,1.9-1,3-3.1,4.5-6.3,4.6h-13.2v.1ZM485.7,253.01v-1.4c1-5.8,1.9-11.7,2.9-17.5.4-2.6,0-3.1-2.7-3.1h-20v.3c1.7.7,3.3,1.3,4.9,2v.9c-1,6-2,12-3,17.9-.4,2.6,0,3.1,2.7,3.1h18.7c.4,0,.8,0,1.2-.2v-.4c-1.5-.6-3.1-1.2-4.7-1.8v.2h0Z"/>
  <path class="cls-1" d="M808.6,255.41c-.6,3.7-1.1,7.1-1.7,10.6h-26.5c-4.2,0-6.7-2.3-7.1-6.5v-3.1c1.9-11.9,3.9-23.8,5.8-35.6,1.8-.6,32.2-.7,35.2,0-.5,3.3-1.1,6.7-1.7,10.3h-29.2v.5c1.5.6,3.1,1.1,4.8,1.8-.2,1.5-.3,3-.5,4.8,6.6.2,13.2,0,20,0-.5,3.3-1,6.4-1.5,9.8h-20.2c-.3,1.8-.6,3.3-.8,4.8-.2,2.1.2,2.6,2.3,2.6h21.1,0Z"/>
  <path class="cls-1" d="M657,220.51h11.1c-.6,3.6-1.1,7-1.7,10.3-1.5,9.3-3.1,18.6-4.6,27.9,0,.8-.3,1.6-.5,2.3-.9,3.2-3.7,5-6.5,5-8.2,0-16.3-.2-24.5,0-4.3,0-6.8-2.9-7.2-6.7v-2.6c1.9-11.6,3.8-23.2,5.7-34.7,0-.5.3-.9.4-1.5h10.9c0,1-.2,1.7-.3,2.5-1.5,9.1-3.1,18.3-4.5,27.4-.3,2-1.1,3-2.9,3.5-.9.2-1.7.6-2.5,1.4h18.1c2.9,0,3,0,3.5-3,1.5-9,3-18.1,4.5-27.2.3-1.5.5-3,.8-4.6h.2Z"/>
  <path class="cls-1" d="M420,220.51h35.1c-.6,3.5-1.1,6.9-1.7,10.4h-29.2v.5c1.6.6,3.2,1.2,4.8,1.9,0,1.5-.3,2.8-.4,4.5h20c-.6,3.6-1.1,7-1.7,10.6-6.7.2-13.3,0-20.1,0-1,5.8-1.9,11.4-3,17.4h-11.2c2.5-15.3,5-30.4,7.5-45.5h0l-.1.2Z"/>
  <g>
    <path class="cls-1" d="M374.8,220.51h21.6c-2.5,15.2-5,30.3-7.5,45.4h-11.5c1.8-11.6,3.5-23.1,5.3-34.6-.2,0-.4,0-.6-.2-5.2,11.6-10.4,23.1-15.6,34.8h-10.6c-2.3-12.1-4.6-24.2-6.9-36.4h-5.2v.4c.8.3,1.5.6,2.2.9.7.3,1.5.6,2.5,1-1.9,11.3-3.9,22.6-5.8,34.1h-11.5c2.5-15.1,5-30.1,7.5-45.3h20.4c1.3,9.1,2.7,18.1,4,27.1h.5c3.7-9,7.5-18,11.3-27.2h-.1Z"/>
    <path class="cls-1" d="M292.2,241.41c-3.2-2.2-3.9-4.9-3.2-8.2.5-2.3.7-4.6,1.2-6.8.8-4.2,2.9-6,7.2-6.1h26.3c-.6,3.5-1.1,6.9-1.7,10.4h-18.6c-2.9,0-3,0-3.4,3v.5c-.2,2.1.2,2.6,2.3,2.6h7.2c.3-1.1.6-2,.9-3h10.8v2.9h7.7c-.5,3.1-.9,5.8-1.4,8.8-1.7,0-3.3.2-4.9.4-.8,4.6-1.5,9.2-2.2,13.7-.3,1.9-1.1,3.5-2.6,4.7-1.1.9-2.3,1.3-3.8,1.3h-23.7c-3.5,0-6.1-2.4-6.3-6.2-.2-2.5.4-5.1.7-7.6.2-1.5.5-3,.8-4.5.7-4.4,2-5.7,6.9-6.2h-.2v.3ZM303.9,246.11h-5.3c-1.2,0-2,.5-2.2,1.7-.3,1.8-.6,3.6-.8,5.5,0,1.5.3,2.1,1.9,2.1h10.5c3.5,0,1.8-.6,2-1.7.3-1.8.7-3.6.9-5.4.2-1.5-.3-2.1-1.8-2.1h-5.3l.1-.1Z"/>
    <path class="cls-1" d="M275.1,265.91h-11c.7-4.2,1.3-8.4,2-12.7h-16.4c-.7,4.2-1.5,8.3-2.2,12.7h-11.1c.3-2.2.6-4.3,1-6.3,1.7-10.6,3.5-21.3,5.3-31.9.2-1.2.4-2.4.9-3.5,1.1-2.4,2.8-3.8,5.6-3.8h25.9c3.6,0,5.8,3,6.2,6.1v3.1c-1.9,11.8-3.8,23.5-5.8,35.2,0,.3-.2.6-.4,1.1h0ZM248.1,231.01v.5c1.6.6,3.2,1.2,4.9,1.9-.5,3-.9,5.9-1.3,8.9h16.5c.5-3.2,1.1-6.2,1.5-9.3.2-1.5-.3-2-2-2h-19.6Z"/>
    <path class="cls-1" d="M168.4,265.91h-11c.7-4.3,1.3-8.4,2-12.7h-16.4c-.7,4.2-1.5,8.4-2.2,12.7h-11.1c.4-2.7.8-5.3,1.2-7.9,1.7-10.3,3.4-20.6,5.1-30.9.2-1.1.5-2.2.9-3.2,1.1-2.2,2.8-3.5,5.3-3.5h26.1c4,0,6.9,4,6.2,8.5-.8,5.4-1.8,10.9-2.7,16.3-1,6.1-2,12.3-3,18.4,0,.7-.3,1.4-.5,2.3h.1ZM144.7,242.41h15.4c.9,0,1.2-.6,1.3-1.4.4-2.4.8-4.7,1.1-7.1.4-2.4,0-2.9-2.4-2.9h-17.7c-.4,0-.8.2-1.7.3,2.1.8,3.6,1.4,5.3,2-.5,3-.9,5.8-1.4,9h.1v.1Z"/>
    <path class="cls-1" d="M178,252.31h10.7c0,.3,0,.6.2.9.3,1.9.5,2.1,2.4,2.2h17.5c.4,0,.9,0,1.4-.5-1.6-.6-3.2-1.2-4.9-1.9,0-.8.2-1.5.3-2.2.3-2.6,0-3-2.5-3h-14.6c-5.1,0-8.3-3-8.2-8.2,0-2.5.6-4.9,1-7.3.3-1.9.6-3.8,1-5.7.8-4.1,3.4-6.2,7.5-6.2h23c4.4,0,7.4,2.7,7.7,7.1,0,2-.2,4.1-.4,6.5h-10.8c-.2-.3-.3-.4-.4-.5-.3-2.4-.3-2.5-2.8-2.5h-18.8v.5c1.6.6,3.2,1.2,4.9,1.9,0,.7,0,1.3-.2,1.9-.2,2,.2,2.5,2.1,2.5h15.3c5,0,8.6,3.9,8,8.9-.5,4.5-1.3,9-2.2,13.5-.8,3.8-3.5,5.8-7.4,5.8h-22.8c-4.2,0-7.1-3-7.6-6.8-.4-2.3,0-4.6.7-6.9h-.1Z"/>
    <path class="cls-1" d="M73.6,248.01h-20.2c-.3,1.9-.7,3.7-.9,5.5-.2,1.2.5,1.8,1.7,1.9h21.8c-.6,3.7-1.1,7-1.7,10.5h-26.3c-4.7,0-7.4-2.7-7.5-7.4,0-.9,0-1.8.2-2.6,1.8-11.1,3.7-22.2,5.5-33.3,0-.7.3-1.4.5-2.2h35c-.6,3.5-1.1,6.9-1.7,10.5h-29.2v.5c1.6.6,3.2,1.2,4.9,1.8-.2,1.5-.3,3-.6,4.8h20c-.5,3.4-1,6.5-1.6,9.8h0l.1.2Z"/>
    <path class="cls-1" d="M126,266.01h-12.7c-.5,0-1.2-.7-1.5-1.2-1.7-3-3.3-6-5-9-.4-.7-.8-1.4-1.3-2.3-.5.5-1,1-1.3,1.4-2.4,3.3-4.8,6.6-7.2,9.9-.5.7-1,1.3-2.1,1.3h-12.2s-.3,0-.5-.3c.3-.5.6-1.1,1-1.5,4.4-6.1,8.9-12.1,13.2-18.2.8-1.2,1.8-1.7,3.2-1.6h4.8c-.9-1.2-2-1.4-3-1.6-1.6-.4-2.5-1.4-3.3-2.8-3-5.7-6.2-11.3-9.3-17-.4-.7-.7-1.4-1.3-2.5h11.7c1.4,0,2.2.4,2.8,1.7,1.5,3,3.2,5.9,5,9.1.6-.8,1.1-1.4,1.6-2,1.8-2.5,3.7-5,5.5-7.6.5-.7,1-1.2,1.9-1.2h12.2s.3,0,.7.3c-.5.7-.9,1.4-1.4,2.1-4.3,6-8.6,11.9-13,17.8-1,1.3-1.1,2.2-.2,3.6,3.6,6.3,7,12.7,10.5,19.1.4.8.8,1.5,1.3,2.6h0l-.1-.1Z"/>
    <path class="cls-1" d="M13.3,231.01H0c.6-3.6,1.1-7,1.6-10.2,1.9-.5,35.3-.6,38.4,0-.5,3.3-1.1,6.7-1.6,10.3h-17.9c0,.2,0,.3-.1.5,1.6.6,3.2,1.2,5,1.9-1.8,10.8-3.6,21.5-5.4,32.4H7.6c1.9-11.6,3.8-23.1,5.7-34.8h0v-.1Z"/>
  </g>
  <path class="cls-1" d="M679.9,255.41h28.1c-.6,3.6-1.1,6.9-1.7,10.2-1.8.5-32.9.6-35.9,0,2.5-15,4.9-30,7.4-45.2h12.2v1.8c-1.6,9.6-3.2,19.2-4.7,28.8-.2,1.2-.7,2-1.9,2.3-1.2.3-2.4.8-3.6,1.2v.7h0l.1.2Z"/>
  <path class="cls-1" d="M805.5,103.01c-1.3.6-2,1.1-2.8,1.2-3,.2-6,.4-9-.8-10.4-4.4-21.4-7-32.4-9.2-3.3-.7-6.6-1.2-9.9-1.9-.7-.2-1.5-.6-1.9-1.2-4-5.4-8.5-10.4-13.7-14.7,0,0,0-.3-.3-.6.6,0,1.1,0,1.6.2,14.9,2.8,29.7,6.4,43.8,12.1,8,3.2,15.6,7.1,22.2,12.5.7.6,1.3,1.3,2.4,2.4h0Z"/>
</svg>