<svg width="14" height="31" viewBox="0 0 14 31" fill="none" xmlns="http://www.w3.org/2000/svg">
<g clip-path="url(#clip0_2002_16)">
<path d="M13.9002 10.0265H12.602V8.81172L13.9002 2.73154H12.602V2.73455C12.602 1.6991 11.7965 0.861093 10.8011 0.861093H9.56964V0.0336266H4.46822V0.861093H3.2367C2.2428 0.861093 1.43585 1.6991 1.43585 2.73455H0.137695L1.43585 8.81474V10.031H0.137695L1.43585 16.1112V17.3335H0.137695L1.43585 23.4137V23.8434C1.43585 24.8786 2.2428 25.7167 3.2367 25.7167H4.46822V26.5443H5.75774V30.9001H8.28012V26.5443H9.56964V25.7167H10.8011C11.7965 25.7167 12.602 24.8786 12.602 23.8434V23.4092L13.9002 17.3306H12.602V16.1067L13.9002 10.0265ZM7.01818 23.4212C5.40128 23.4212 4.0901 22.0558 4.0901 20.3736C4.0901 18.6901 5.40128 17.326 7.01818 17.326C8.63654 17.326 9.94918 18.6901 9.94918 20.3736C9.94918 22.0558 8.63654 23.4212 7.01818 23.4212ZM7.01818 16.1188C5.40128 16.1188 4.0901 14.7532 4.0901 13.0696C4.0901 11.3876 5.40128 10.022 7.01818 10.022C8.63654 10.022 9.94918 11.3876 9.94918 13.0696C9.94918 14.7532 8.63654 16.1188 7.01818 16.1188ZM7.01818 8.81474C5.40128 8.81474 4.0901 7.45065 4.0901 5.76708C4.0901 4.08351 5.40128 2.71797 7.01818 2.71797C8.63654 2.71797 9.94918 4.08351 9.94918 5.76708C9.94918 7.45065 8.63654 8.81474 7.01818 8.81474Z" fill="white"/>
</g>
<defs>
<clipPath id="clip0_2002_16">
<rect width="14" height="31" fill="white"/>
</clipPath>
</defs>
</svg>
