<svg width="27" height="24" viewBox="0 0 27 24" fill="none" xmlns="http://www.w3.org/2000/svg">
<g clip-path="url(#clip0_2002_18)">
<path d="M25.8935 7.34413H24.0472L24.062 7.30229L23.8636 6.85796C23.2516 5.48958 21.1222 0.957796 19.433 0.114226L19.233 0.012804H7.819L7.61895 0.114226C5.92679 0.957796 3.8005 5.48958 3.18706 6.85796L2.98845 7.30229L3.00479 7.34413H1.15854C0.601395 7.34413 0.146484 7.77073 0.146484 8.29878V9.3114C0.146484 9.83782 0.601395 10.266 1.15854 10.266H1.74531C1.68455 10.588 1.64452 10.9196 1.64452 11.2674V15.8136C1.64452 17.1788 2.14535 18.3798 2.90698 19.1219V22.8793C2.90698 23.4878 3.36038 23.9773 3.91752 23.9773H6.19499C6.75213 23.9773 7.20561 23.4878 7.20561 22.8793V19.9027H19.845V22.8793C19.845 23.4878 20.2984 23.9773 20.8569 23.9773H23.1315C23.6932 23.9773 24.1436 23.4878 24.1436 22.8793V19.1219C24.9082 18.3798 25.4075 17.1788 25.4075 15.8136V11.2674C25.4075 10.9196 25.3676 10.588 25.3052 10.266H25.8935C26.4521 10.266 26.9041 9.83782 26.9041 9.313V8.29878C26.9041 7.77073 26.4521 7.34413 25.8935 7.34413ZM8.31099 2.21028H18.7381C19.43 2.77696 20.7371 5.03398 21.749 7.17671H5.30595C6.31501 5.03398 7.62198 2.77696 8.31099 2.21028Z" fill="white"/>
</g>
<defs>
<clipPath id="clip0_2002_18">
<rect width="27" height="24" fill="white"/>
</clipPath>
</defs>
</svg>
