<svg width="28" height="28" viewBox="0 0 28 28" fill="none" xmlns="http://www.w3.org/2000/svg">
<path fill-rule="evenodd" clip-rule="evenodd" d="M25.6663 14C25.6663 20.4433 20.443 25.6667 13.9997 25.6667C7.55635 25.6667 2.33301 20.4433 2.33301 14C2.33301 7.55668 7.55635 2.33333 13.9997 2.33333C20.443 2.33333 25.6663 7.55668 25.6663 14ZM12.5561 23.2224C11.7875 21.3359 9.59057 16.2247 8.16634 15.75C7.17021 15.418 5.79606 15.4639 4.797 15.5651C5.46242 19.5062 8.59803 22.6078 12.5561 23.2224ZM5.0507 11.3406C6.19578 7.48153 9.769 4.66667 13.9997 4.66667C18.2303 4.66667 21.8036 7.48153 22.9487 11.3406C21.1067 10.9954 17.8009 10.5 13.9997 10.5C10.1985 10.5 6.89264 10.9954 5.0507 11.3406ZM23.2023 15.5651C22.2033 15.4639 20.8291 15.418 19.833 15.75C18.4088 16.2247 16.2118 21.3359 15.4432 23.2224C19.4013 22.6078 22.5369 19.5062 23.2023 15.5651Z" fill="white"/>
</svg>
